<svg width="120" height="120" viewBox="0 0 120 120" fill="none" xmlns="http://www.w3.org/2000/svg">
<rect width="120" height="120" fill="#E9DED4"/>
<path d="M91.7552 105.032H89.95C89.95 105.013 89.9411 104.994 89.9373 104.976L89.8879 104.755C89.8563 104.61 89.8221 104.466 89.7867 104.323C89.7715 104.255 89.755 104.188 89.7386 104.121C89.6917 103.933 89.6424 103.744 89.5917 103.556L89.5765 103.502C89.5208 103.298 89.4626 103.095 89.4018 102.892L89.3411 102.696C89.2993 102.557 89.255 102.419 89.2145 102.281C89.1904 102.206 89.1651 102.131 89.1411 102.057C89.0968 101.924 89.0512 101.79 89.0043 101.658C88.9803 101.589 88.955 101.518 88.9309 101.45C88.8718 101.284 88.8111 101.12 88.7486 100.956C88.7347 100.921 88.7233 100.888 88.7094 100.853C88.636 100.661 88.5587 100.47 88.4802 100.279C88.4524 100.21 88.4233 100.141 88.3942 100.073C88.341 99.953 88.2878 99.8209 88.2334 99.6961L88.1309 99.4645C88.0777 99.3445 88.0233 99.2245 87.9676 99.1044C87.9334 99.03 87.8979 98.9544 87.8625 98.88C87.7979 98.742 87.7359 98.6052 87.6637 98.4696C87.6372 98.418 87.6131 98.3652 87.5865 98.3123C87.4966 98.1335 87.4042 97.9523 87.3106 97.7795L87.184 97.555L87.0055 97.2298L86.8662 96.9898C86.808 96.889 86.7498 96.7882 86.6903 96.6873C86.6434 96.6057 86.5953 96.5241 86.5472 96.4473C86.4814 96.3381 86.4206 96.2313 86.3485 96.1233L86.1662 95.8304C86.0801 95.696 85.994 95.5604 85.9054 95.4272C85.8497 95.3432 85.794 95.2604 85.737 95.1776C85.6801 95.0947 85.618 94.9999 85.5573 94.9123C85.4965 94.8247 85.4307 94.7371 85.375 94.6507C85.3193 94.5643 85.2585 94.4863 85.199 94.4107C85.1395 94.3351 85.0724 94.2342 85.0079 94.1466L84.8294 93.9066C84.7028 93.747 84.5863 93.5874 84.4623 93.4265L84.2888 93.2069C84.2154 93.1145 84.1394 93.0233 84.0648 92.9321L83.8977 92.7305C83.8204 92.638 83.742 92.5468 83.6635 92.4544L83.4989 92.2648L83.2533 91.9864L83.1077 91.8255C82.8052 91.4931 82.495 91.1655 82.1773 90.8462L82.0381 90.7058L81.7469 90.4214L81.6038 90.2845C81.5026 90.1873 81.4013 90.0913 81.2988 89.9965L81.1937 89.9005C80.8354 89.5705 80.4671 89.2488 80.0924 88.9404L79.9898 88.8552C79.8742 88.7592 79.7577 88.6643 79.6404 88.5707L79.5239 88.4771C79.3974 88.3811 79.2822 88.2863 79.1594 88.1915L79.0973 88.1447C78.6834 87.8278 78.2593 87.5194 77.8314 87.223L77.7719 87.181C77.6365 87.0886 77.501 86.9973 77.3643 86.9073L77.2744 86.8485C77.1352 86.7561 76.9947 86.6661 76.8541 86.5761L76.8301 86.5617C76.3642 86.2664 75.8895 85.9836 75.406 85.7132L75.387 85.7012C75.2338 85.616 75.0806 85.5332 74.9274 85.4503L74.8603 85.4143C74.0451 84.9783 73.2079 84.5782 72.3488 84.2142L72.2956 84.1914C72.069 84.0954 71.8412 84.003 71.6108 83.9118H76.1414C76.8795 83.9118 77.4782 83.1065 77.4782 82.1115C77.4782 81.1166 76.8795 80.3113 76.1414 80.3113H74.792C74.8755 80.1097 74.9679 79.8817 75.068 79.6248C76.344 78.8711 78.5897 77.2653 80.8177 74.3154L80.8354 74.2926C81.0042 74.0717 81.1701 73.8433 81.3329 73.6073L81.3658 73.5605C81.5279 73.3288 81.6899 73.09 81.8494 72.8404L81.8925 72.7744C81.9684 72.6544 82.0444 72.5343 82.1203 72.4143C82.1203 72.4143 82.1203 72.4047 82.1292 72.3987C82.2077 72.2787 82.2849 72.1467 82.3621 72.0183L82.4115 71.9355C82.4773 71.8251 82.5444 71.7122 82.609 71.5982C82.6216 71.5778 82.6343 71.5574 82.6457 71.5358C82.7204 71.4062 82.7951 71.2742 82.8685 71.141L82.9191 71.0486C82.9799 70.9381 83.0394 70.8265 83.0989 70.7137C83.1166 70.6825 83.1343 70.6501 83.1508 70.6177C83.2217 70.4821 83.2926 70.3453 83.3635 70.206L83.4128 70.1088C83.4685 69.996 83.5255 69.8808 83.5812 69.7656L83.642 69.6456C83.7103 69.504 83.7774 69.36 83.8445 69.2147L83.8863 69.1223C83.942 69.0023 83.9964 68.8823 84.0508 68.7623L84.1154 68.6182C84.1787 68.473 84.242 68.3266 84.3028 68.179C84.3141 68.1526 84.3255 68.125 84.3357 68.0986C84.3926 67.963 84.4483 67.8249 84.504 67.6857L84.5673 67.5273C84.6192 67.3953 84.6711 67.2621 84.7218 67.1289L84.7598 67.0281C84.8193 66.8696 84.8775 66.7076 84.9357 66.548L84.9965 66.3776C85.0421 66.2504 85.0864 66.1207 85.1307 65.9911C85.1471 65.9431 85.1636 65.8951 85.1788 65.8471C85.2345 65.6815 85.2902 65.5123 85.3446 65.3431C85.3623 65.2842 85.3813 65.223 85.399 65.1678L85.5256 64.773C85.5421 64.7154 85.5598 64.653 85.5763 64.6014C85.6282 64.4273 85.6801 64.2497 85.7294 64.0709C85.7459 64.0145 85.7611 63.9569 85.7763 63.8993C85.8142 63.7613 85.8522 63.6232 85.8889 63.4828C85.9054 63.4192 85.9219 63.3556 85.9396 63.292C85.9864 63.1072 86.0333 62.9212 86.0788 62.7327L86.1168 62.5755C86.1523 62.4255 86.1877 62.2743 86.2219 62.1218L86.2674 61.9178C86.3105 61.7222 86.3535 61.5266 86.394 61.3273C86.4029 61.2889 86.4105 61.2493 86.4181 61.2073C86.4535 61.0357 86.4877 60.8617 86.5206 60.6877C86.5346 60.6169 86.5472 60.546 86.5611 60.4752C86.5941 60.2964 86.6257 60.1152 86.6574 59.9364C86.6637 59.898 86.6713 59.8608 86.6776 59.8236C86.713 59.6123 86.7477 59.3995 86.7814 59.1851C86.7928 59.1131 86.8042 59.0411 86.8143 58.9679C86.8409 58.7938 86.8662 58.6186 86.8915 58.441L86.9143 58.2778C86.9447 58.0569 86.9738 57.8349 87.0017 57.6093C87.0105 57.5385 87.0181 57.4677 87.027 57.3957C87.0489 57.2164 87.0692 57.0364 87.0877 56.8556C87.0953 56.7908 87.1029 56.7272 87.1093 56.6624C87.1337 56.4303 87.1565 56.1963 87.1776 55.9603C87.1776 55.8943 87.189 55.8283 87.1941 55.7611C87.2106 55.5714 87.227 55.3806 87.2409 55.1886C87.2409 55.1178 87.2523 55.047 87.2574 54.9762C87.2751 54.7313 87.2916 54.4849 87.3068 54.2369C87.3068 54.1805 87.3068 54.1168 87.3156 54.0664C87.327 53.86 87.3384 53.6524 87.3473 53.4436C87.3473 53.368 87.3473 53.2924 87.3574 53.2167C87.3675 52.9587 87.3777 52.6995 87.3853 52.4366C87.3853 52.4006 87.3853 52.3634 87.3853 52.3262C87.392 52.0926 87.3971 51.8566 87.4004 51.6181C87.4004 51.5401 87.4004 51.4621 87.4004 51.3841C87.4004 51.1281 87.4004 50.8705 87.4004 50.6112V50.5512C87.4004 50.2752 87.4004 49.9955 87.4004 49.7111V49.4711C87.4004 49.2311 87.3903 48.979 87.384 48.7294V48.5938C87.3751 48.3057 87.3637 48.0141 87.3523 47.7213C87.3523 47.6456 87.3447 47.5688 87.3422 47.4932C87.3312 47.2468 87.3186 46.9988 87.3042 46.7491C87.3042 46.6879 87.3042 46.6291 87.2941 46.5631C87.2764 46.2631 87.257 45.9606 87.2359 45.6558L87.2207 45.4434C87.2017 45.1889 87.1827 44.9333 87.1612 44.6753C87.1612 44.6009 87.1498 44.5265 87.1435 44.452C87.1169 44.14 87.0878 43.8244 87.0574 43.5075C87.0574 43.4475 87.0447 43.3875 87.0396 43.3263C87.0131 43.0563 86.984 42.7838 86.9548 42.509C86.946 42.4262 86.9371 42.3446 86.927 42.2618C86.8915 41.9353 86.8536 41.6077 86.8131 41.2753C86.8131 41.2345 86.8017 41.1936 86.7966 41.1552C86.7603 40.8576 86.7219 40.5584 86.6814 40.2575C86.6687 40.1687 86.6573 40.0799 86.6447 39.9911C86.5974 39.6503 86.5489 39.3066 86.4991 38.9602C81.4355 4.78712 45.552 10.333 45.552 10.333L46.7015 17.6755L25 39.4102L25.9482 47.8029L34.169 52.6035C34.5355 51.7204 35.006 50.8793 35.5716 50.0964C40.8758 44.296 51.1663 39.7427 54.1121 38.7981C54.702 38.6097 55.0375 38.5149 55.0375 38.5149C40.9467 55.8043 42.5493 75.6115 43.1772 80.3329C42.524 80.4529 42.0189 81.2006 42.0189 82.1127C42.0189 83.1065 42.6177 83.913 43.3557 83.913H47.8864C40.3512 86.9032 34.37 92.5983 31.2485 99.7549C31.2448 99.7647 31.2406 99.7744 31.2359 99.7837C31.0055 100.315 30.7911 100.854 30.5928 101.4C30.5931 101.406 30.5931 101.412 30.5928 101.417C30.5396 101.566 30.4877 101.715 30.4371 101.865C30.4181 101.919 30.3991 101.973 30.3814 102.028C30.3358 102.162 30.2936 102.298 30.2548 102.435C30.232 102.504 30.2105 102.575 30.189 102.645C30.1484 102.773 30.1092 102.903 30.0712 103.033L30.0029 103.273C29.9674 103.393 29.932 103.521 29.8991 103.646C29.875 103.735 29.8522 103.822 29.8294 103.911C29.7991 104.031 29.7674 104.151 29.7383 104.271C29.7092 104.391 29.6813 104.511 29.6535 104.638C29.6256 104.766 29.5902 104.914 29.5598 105.054H27.7534C27.406 105.046 27.0606 105.105 26.7374 105.226C26.4142 105.347 26.1198 105.528 25.8715 105.758C25.6231 105.989 25.4257 106.264 25.291 106.567C25.1562 106.871 25.0868 107.197 25.0868 107.526C25.0868 107.856 25.1562 108.182 25.291 108.486C25.4257 108.789 25.6231 109.064 25.8715 109.295C26.1198 109.525 26.4142 109.706 26.7374 109.827C27.0606 109.948 27.406 110.007 27.7534 109.999H91.7779C92.1253 110.007 92.4707 109.948 92.7939 109.827C93.1171 109.706 93.4115 109.525 93.6599 109.295C93.9082 109.064 94.1056 108.789 94.2403 108.486C94.3751 108.182 94.4445 107.856 94.4445 107.526C94.4445 107.197 94.3751 106.871 94.2403 106.567C94.1056 106.264 93.9082 105.989 93.6599 105.758C93.4115 105.528 93.1171 105.347 92.7939 105.226C92.4707 105.105 92.1253 105.046 91.7779 105.054L91.7552 105.032Z" fill="#595653"/>
</svg>
