<svg width="660" height="660" viewBox="0 0 660 660" fill="none" xmlns="http://www.w3.org/2000/svg">
<g clip-path="url(#clip0_40077_262)">
<circle cx="330" cy="330" r="330" fill="#FBCE51"/>
<g style="mix-blend-mode:overlay">
<path d="M472.689 613.3L472.297 612.482L473.794 611.457L469.615 603.106L469.282 605.869L467.377 614.118L467.56 614.574L469.12 614.076L469.512 614.894L464.914 617.227L464.522 616.409L465.778 615.523L460.632 605.079L459.167 605.603L458.775 604.785L463.468 602.477L463.86 603.295L462.509 604.156L466.758 612.628L467.04 610.055L468.996 601.616L468.648 601.013L466.968 601.582L466.576 600.764L471.268 598.456L471.66 599.274L470.309 600.134L475.455 610.579L476.895 610.149L477.287 610.967L472.689 613.3Z" fill="black"/>
<path d="M461.313 618.502C460.806 618.876 460.444 619.084 460.083 619.293C459.721 619.502 459.36 619.71 459.024 619.824C457.629 620.469 456.431 620.759 455.455 620.599C454.479 620.44 453.795 619.951 453.359 618.917C452.993 618.004 452.911 617.168 453.235 616.338C453.56 615.508 454.143 614.85 454.892 614.337C453.858 614.773 452.927 614.829 452.071 614.6C451.241 614.276 450.678 613.717 450.286 612.899C449.711 611.625 449.68 610.598 450.151 609.604C450.621 608.609 451.661 607.767 453.297 606.984C453.995 606.661 454.667 606.434 455.193 606.371C455.745 606.213 456.271 606.151 456.581 606.132C456.892 606.113 457.107 606.069 457.202 606.095L458.2 609.214L457.382 609.606L455.889 607.576C455.198 607.493 454.431 607.695 453.397 608.131C452.605 608.428 452.167 608.922 451.989 609.587C451.81 610.252 451.917 610.994 452.284 611.907C452.606 612.604 453.074 613.137 453.714 613.41C454.354 613.684 455.191 613.602 456.224 613.166L457.378 612.661L457.84 613.599L456.806 614.035C456.35 614.218 455.963 614.522 455.55 614.921C455.233 615.345 455.011 615.795 454.883 616.27C454.851 616.771 454.888 617.392 455.141 617.969C455.438 618.761 455.932 619.199 456.502 619.352C457.072 619.505 457.719 619.373 458.511 619.076C458.993 618.797 459.45 618.614 459.742 618.285C460.034 617.956 460.205 617.696 460.256 617.506L459.903 615.782L460.962 615.251L462.303 617.851C462.182 617.92 461.821 618.129 461.313 618.502Z" fill="black"/>
<path d="M446.09 623.998L447.599 623.689L447.965 624.602L445.588 625.493C445.226 625.702 444.674 625.86 444.097 626.112C443.52 626.365 443.159 626.574 442.918 626.713C441.333 627.307 440.065 627.476 439.21 627.247C438.355 627.018 437.696 626.434 437.355 625.426C437.058 624.634 436.977 623.797 437.276 623.062C437.479 622.302 438.063 621.643 438.786 621.226C437.657 621.637 436.7 621.788 435.87 621.463C435.041 621.139 434.382 620.555 434.041 619.547C433.536 618.393 433.626 617.297 434.216 616.233C434.807 615.169 435.968 614.258 437.889 613.55C438.345 613.367 438.682 613.253 439.113 613.165C440 612.893 440.577 612.641 440.793 612.597L443.075 611.68L443.347 612.568L441.926 613.308L446.09 623.998ZM438.186 614.343C437.032 614.848 436.283 615.361 435.89 616.07C435.496 616.779 435.603 617.521 435.874 618.409C436.241 619.322 436.709 619.855 437.349 620.128C437.988 620.401 438.825 620.32 439.859 619.884C441.013 619.378 441.78 619.176 442.141 618.968L440.177 613.756C439.771 613.749 439.194 614.002 438.186 614.343ZM441.449 620.412L440.536 620.778C439.743 621.075 439.21 621.543 438.937 622.183C438.664 622.823 438.676 623.539 439.067 624.357C439.364 625.15 439.833 625.683 440.378 625.93C440.922 626.178 441.759 626.097 442.792 625.661C443.249 625.478 443.61 625.269 444.067 625.086L444.429 624.877L442.577 620.001C442.336 620.14 442 620.254 441.449 620.412Z" fill="black"/>
<path d="M431.252 630.717L429.331 631.425L420.921 620.616L419.748 620.811L419.477 619.923L424.181 618.332L424.453 619.219L423.058 619.864L424.76 622.255L429.921 620.481L429.873 617.616L428.269 617.899L427.998 617.012L432.246 615.603L432.517 616.491L431.458 617.022L431.252 630.717ZM429.265 628.25L430.22 629.626L430.083 627.858L429.925 621.602L425.437 623.15L429.265 628.25Z" fill="black"/>
<path d="M416.636 621.402C417.776 621.708 418.65 622.248 419.422 623.168C420.194 624.087 420.821 625.172 421.155 626.586C421.514 627.904 421.589 629.147 421.353 630.408C421.117 631.668 420.552 632.637 419.727 633.435C418.902 634.232 417.913 634.884 416.689 635.269C415.801 635.541 414.629 635.736 413.291 635.785L412.67 635.822L411.914 632.564L413.137 632.179L414.294 634.322C414.485 634.373 414.865 634.475 415.27 634.482C415.676 634.488 416.227 634.331 416.874 634.198C417.641 633.996 418.269 633.554 418.732 632.965C419.196 632.376 419.52 631.546 419.559 630.64C419.598 629.734 419.498 628.586 419.183 627.483C418.867 626.38 418.431 625.347 417.824 624.573C417.216 623.799 416.583 623.12 415.848 622.821C415.113 622.522 414.233 622.388 413.345 622.66C412.699 622.792 412.217 623.07 411.976 623.209C411.735 623.349 411.443 623.678 411.271 623.937L411.047 625.914L409.874 626.11L409.561 623.479C409.776 623.435 410.138 623.226 410.62 622.948C411.007 622.644 411.368 622.436 411.825 622.252C412.186 622.044 412.738 621.886 413.289 621.728C414.348 621.197 415.495 621.097 416.636 621.402Z" fill="black"/>
<path d="M402.549 635.962C402.174 636.982 401.609 637.951 400.93 638.584C400.13 639.286 399.287 639.773 398.33 639.924C397.132 640.214 396.035 640.124 395.11 639.775C394.185 639.425 393.337 638.79 392.66 637.896C391.983 637.001 391.452 635.942 391.213 634.554C390.904 633.045 390.855 631.708 391.065 630.542C391.301 629.281 391.867 628.312 392.596 627.489C393.326 626.666 394.265 626.205 395.368 625.889C396.566 625.599 397.688 625.594 398.708 625.969C399.727 626.344 400.481 626.954 401.183 627.753C401.861 628.647 402.392 629.706 402.631 631.095L405.553 630.452L404.33 625.133L402.752 625.321L402.575 624.459L407.583 623.255L407.76 624.117L406.295 624.641L408.969 635.951L410.427 635.832L410.603 636.694L405.715 637.829L405.539 636.967L407.004 636.443L405.869 631.555L402.921 632.293C402.945 633.725 402.829 634.916 402.549 635.962ZM400.482 636.834C400.908 635.624 400.91 634.097 400.443 632.036C399.995 630.287 399.351 628.892 398.458 628.041C397.565 627.191 396.545 626.816 395.252 627.08C394.054 627.371 393.35 628.099 392.949 629.214C392.549 630.328 392.616 631.976 393.083 634.037C393.531 635.786 394.08 637.156 394.973 638.006C395.84 638.952 396.885 639.232 397.989 638.916C399.256 638.747 400.056 638.044 400.482 636.834Z" fill="black"/>
<path d="M381.275 635.151C380.711 634.592 379.888 633.862 379.021 632.917C378.388 632.238 378.015 631.731 377.686 631.439C377.356 631.147 377.097 630.975 376.907 630.924L376.216 630.841L376.04 629.979L378.29 629.563C378.6 629.545 378.955 629.742 379.354 630.154C379.753 630.567 380.386 631.245 381.063 632.14C381.904 633.18 382.537 633.859 383.101 634.418C383.569 634.95 384.019 635.173 384.45 635.085L385.622 634.889L384.684 629.647L383.037 629.715L382.86 628.853L387.887 627.959L388.038 628.916L386.599 629.345L388.626 640.787L390.153 640.789L390.304 641.746L385.398 642.57L385.298 641.423L386.762 640.899L385.85 635.562L384.246 635.845L381.425 641.812L382.978 641.718L383.129 642.675L378.628 643.507L378.477 642.549L379.916 642.12L382.978 636.014C382.478 635.982 381.863 635.614 381.275 635.151Z" fill="black"/>
<path d="M372.92 630.977C373.915 631.447 374.643 632.151 375.174 633.21C375.73 634.174 376.116 635.398 376.355 636.786C376.594 638.174 376.453 639.461 376.027 640.671C375.626 641.786 374.966 642.729 374.167 643.432C373.272 644.109 372.334 644.57 371.066 644.74C369.152 645.042 367.536 644.609 366.409 643.492C365.283 642.375 364.473 640.834 364.248 638.635C364.034 637.152 364.175 635.865 364.576 634.75C365.002 633.54 365.636 632.692 366.461 631.894C367.356 631.217 368.389 630.781 369.562 630.586C370.83 630.417 371.926 630.507 372.92 630.977ZM373.693 641.777C374.214 640.592 374.406 639.116 374.155 637.012C373.948 635.123 373.399 633.753 372.557 632.713C371.715 631.672 370.695 631.297 369.523 631.492C368.35 631.687 367.481 632.269 366.96 633.454C366.439 634.638 366.222 636.21 366.498 638.219C366.705 640.108 367.255 641.478 368.122 642.423C368.894 643.343 369.888 643.813 371.156 643.644C372.278 643.639 373.172 642.961 373.693 641.777Z" fill="black"/>
<path d="M361.547 644.532L363.049 644.629L363.105 645.56L360.595 645.805C360.189 645.798 359.638 645.956 359.017 645.993C358.37 646.125 357.964 646.118 357.749 646.162C356.076 646.325 354.789 646.184 354.01 645.67C353.231 645.156 352.814 644.433 352.688 643.381C352.607 642.544 352.836 641.689 353.205 641.074C353.573 640.46 354.321 639.948 355.209 639.676C354.062 639.776 353.086 639.616 352.307 639.102C351.528 638.588 351.136 637.77 351.08 636.838C351.006 635.596 351.286 634.551 352.136 633.658C352.986 632.765 354.356 632.216 356.435 632.06C356.866 631.972 357.271 631.978 357.772 632.011C358.704 631.955 359.325 631.917 359.515 631.968L362.025 631.724L362.081 632.656L360.572 632.965L361.547 644.532ZM356.56 633.112C355.318 633.186 354.405 633.553 353.942 634.142C353.383 634.705 353.18 635.465 353.33 636.423C353.386 637.354 353.709 638.052 354.228 638.395C354.747 638.738 355.603 638.967 356.655 638.841C357.897 638.767 358.734 638.685 359.07 638.572L358.614 633.051C358.234 632.949 357.612 632.986 356.56 633.112ZM358.118 639.844L357.065 639.97C356.229 640.051 355.531 640.374 355.188 640.893C354.846 641.412 354.642 642.172 354.723 643.009C354.805 643.846 355.032 644.518 355.551 644.861C356.071 645.203 356.831 645.407 357.883 645.282C358.314 645.193 358.815 645.226 359.271 645.043L359.702 644.954L359.265 639.744C358.954 639.763 358.644 639.782 358.118 639.844Z" fill="black"/>
<path d="M332.194 647.26L332.138 646.328L333.742 646.045L333.389 634.441L331.602 634.267L331.546 633.336L336.774 633.209L336.83 634.14L335.252 634.329L335.58 646.028L341.525 645.89L341.197 634.19L339.505 634.042L339.449 633.111L344.678 632.984L344.733 633.915L343.25 634.129L343.604 645.734L345.175 645.951L345.231 646.883L332.194 647.26Z" fill="black"/>
<path d="M327.786 634.06C328.635 634.695 329.337 635.494 329.748 636.623C330.184 637.656 330.354 638.924 330.377 640.356C330.306 641.763 330.07 643.024 329.479 644.088C328.889 645.152 328.159 645.975 327.195 646.532C326.231 647.088 325.128 647.404 324.006 647.409C322.073 647.4 320.629 646.708 319.623 645.521C318.642 644.24 318.168 642.585 318.158 640.342C318.135 638.909 318.491 637.579 319.082 636.515C319.673 635.451 320.428 634.533 321.392 633.976C322.356 633.42 323.459 633.104 324.676 633.125C325.893 633.145 326.938 633.425 327.786 634.06ZM327.032 644.858C327.718 643.82 328.125 642.299 328.159 640.271C328.142 638.433 327.834 636.925 327.208 635.84C326.582 634.756 325.613 634.19 324.396 634.17C323.179 634.15 322.215 634.706 321.529 635.745C320.844 636.783 320.411 638.399 320.377 640.427C320.368 642.36 320.607 643.748 321.328 644.858C321.954 645.942 322.923 646.507 324.14 646.528C325.313 646.333 326.251 645.871 327.032 644.858Z" fill="black"/>
<path d="M312.28 637.952C312.643 636.216 313.069 635.006 313.704 634.157C314.022 633.733 314.314 633.404 314.675 633.195C315.037 632.986 315.468 632.898 315.873 632.905C316.469 632.963 316.874 632.97 317.16 633.046L317.158 634.573C316.873 634.497 316.372 634.465 315.776 634.407C315.586 634.356 315.371 634.4 315.13 634.539C314.889 634.678 314.743 634.843 314.597 635.007C313.499 636.445 312.899 639.442 312.609 643.947L312.512 645.449L314.654 645.82L314.614 646.726L303.791 646.066L303.83 645.16L305.598 645.023L306.366 633.413L304.51 633.119L304.549 632.213L310.246 632.619L310.207 633.526L308.248 633.612L307.48 645.222L311.295 645.429L311.443 643.737C311.718 641.57 311.942 639.593 312.28 637.952Z" fill="black"/>
<path d="M300.402 644.649L301.922 645.056L301.788 645.937L292.283 644.918L292.356 641.984L293.452 642.074L293.78 643.893L298.399 644.52L298.989 639.279L295.915 638.965L295.508 640.486L294.506 640.421L294.936 636.156L295.938 636.221L296.005 637.869L299.053 638.278L299.624 632.727L294.332 632.328L293.126 634.551L292.036 634.055L292.902 630.824L303.193 631.952L303.059 632.833L301.531 632.831L300.402 644.649Z" fill="black"/>
<path d="M284.965 642.957L288.134 643.297L289.342 639.547L290.508 639.757L289.495 644.68L277.95 642.911L278.463 637.956L279.629 638.166L279.681 642.152L282.893 642.708L284.593 631.042L282.002 630.45L282.136 629.569L289.182 630.642L289.048 631.523L286.64 631.387L284.965 642.957Z" fill="black"/>
<path d="M271.636 633.784L272.516 633.918C272.852 633.804 273.265 633.405 273.608 632.886C273.95 632.367 274.534 631.709 275.049 630.93C275.563 630.151 276.026 629.562 276.344 629.138C276.661 628.713 276.902 628.574 277.092 628.625L279.614 629.097L279.48 629.978L278.738 630.085C278.523 630.129 278.307 630.173 278.015 630.502C277.749 630.736 277.311 631.23 276.847 631.819C276.238 632.572 275.775 633.161 275.362 633.56C274.924 634.054 274.563 634.263 274.106 634.446C274.911 634.865 275.474 635.423 275.797 636.121C276.119 636.818 276.2 637.655 276.041 638.631C275.754 640.082 275.094 641.025 274.181 641.392C273.172 641.733 271.93 641.808 270.289 641.47C269.909 641.368 269.529 641.266 268.959 641.113C268.388 640.96 267.913 640.833 267.628 640.757L265.011 640.259L265.145 639.378L266.742 639.501L268.987 628.083L267.302 627.53L267.436 626.649L272.86 627.695L272.725 628.576L270.939 628.402L270.045 633.256L271.636 633.784ZM269.093 640.232C269.663 640.385 270.138 640.513 270.518 640.614C271.494 640.774 272.21 640.762 272.813 640.414C273.415 640.066 273.784 639.452 273.969 638.381C274.128 637.406 274.047 636.569 273.604 635.941C273.161 635.313 272.547 634.945 271.596 634.69C270.621 634.53 269.955 634.352 269.645 634.371L268.548 639.985L269.093 640.232Z" fill="black"/>
<path d="M258.512 637.906L261.699 638.556L263.193 634.882L264.428 635.213L262.939 640.009L251.649 637.29L252.567 632.341L253.708 632.647L253.355 636.626L256.491 637.466L259.166 625.961L256.626 625.178L256.855 624.323L263.843 625.992L263.614 626.847L261.162 626.495L258.512 637.906Z" fill="black"/>
<path d="M246.508 622.264C247.306 623.088 247.742 624.122 247.937 625.295C248.132 626.467 247.991 627.754 247.609 629.179C247.252 630.51 246.541 631.643 245.716 632.441C244.866 633.333 243.807 633.864 242.704 634.18C241.506 634.47 240.409 634.38 239.174 634.049C238.224 633.794 237.229 633.324 235.975 632.683L235.43 632.435L236.581 629.28L237.817 629.611L237.586 631.994C237.725 632.235 237.985 632.406 238.339 632.603C238.694 632.8 239.239 633.048 239.809 633.201C240.569 633.404 241.285 633.392 242.052 633.191C242.724 632.963 243.473 632.451 243.987 631.672C244.596 630.918 245.067 629.924 245.372 628.784C245.678 627.643 245.863 626.572 245.832 625.546C245.802 624.519 245.53 623.631 245.113 622.908C244.696 622.185 244.012 621.696 243.061 621.442C242.396 621.264 241.921 621.136 241.515 621.129C241.11 621.123 240.774 621.236 240.533 621.375L239.314 622.882L238.225 622.387L239.387 619.948C239.672 620.024 240.078 620.031 240.579 620.064C241.079 620.096 241.485 620.103 241.891 620.109C242.296 620.116 242.866 620.269 243.437 620.422C244.672 620.753 245.736 621.344 246.508 622.264Z" fill="black"/>
<path d="M228.069 630.258L228.393 629.429L230.224 629.817L233.308 620.967L231.133 622.625L223.921 627.11L223.794 627.585L225.333 628.303L225.009 629.133L220.169 627.429L220.493 626.599L221.944 626.886L225.709 615.876L224.265 615.183L224.589 614.353L229.524 616.083L229.2 616.913L227.559 616.575L224.449 625.52L226.505 623.932L233.931 619.403L234.11 618.738L232.475 617.994L232.8 617.164L237.735 618.894L237.41 619.724L235.864 619.411L232.099 630.422L233.448 631.089L233.124 631.919L228.069 630.258Z" fill="black"/>
<path d="M208.975 623.207L210.629 618.557L211.839 618.983L210.941 622.715L214.684 624.329L219.045 613.377L216.062 611.966L216.386 611.137L223.215 613.781L222.89 614.611L220.895 614.076L216.68 624.864L218.453 625.849L218.129 626.678L208.975 623.207Z" fill="black"/>
<path d="M206.437 620.897L207.64 621.729L207.316 622.559L202.673 620.5L202.997 619.67L204.518 620.078L206.551 615.53L200.533 612.899L198.5 617.447L199.798 618.304L199.474 619.134L194.926 617.1L195.25 616.27L196.676 616.652L201.366 605.992L200.042 605.23L200.366 604.4L204.914 606.433L204.59 607.263L203.095 606.761L200.839 611.758L206.857 614.389L209.112 609.392L207.694 608.604L208.018 607.774L212.756 609.859L212.432 610.688L211.032 610.211L206.437 620.897Z" fill="black"/>
<path d="M188.725 614.012L186.927 613.123L188.635 599.525L187.691 598.864L188.111 598.06L192.513 600.258L192.094 601.062L190.598 600.56L190.145 603.392L194.997 605.813L196.989 603.698L195.596 602.816L196.015 602.011L199.968 603.987L199.548 604.792L198.433 604.391L188.725 614.012ZM188.97 610.819L188.632 612.46L189.8 611.143L194.172 606.61L189.96 604.463L188.97 610.819Z" fill="black"/>
<path d="M181.415 600.239C182.488 598.896 183.459 597.934 184.328 597.352C184.81 597.074 185.146 596.96 185.577 596.872C185.983 596.879 186.363 596.981 186.812 597.203C187.357 597.451 187.686 597.743 187.946 597.914L187.374 599.289C187.114 599.117 186.76 598.92 186.145 598.552C185.981 598.406 185.791 598.355 185.575 598.399C185.36 598.443 185.144 598.487 184.903 598.627C183.362 599.436 181.483 601.886 179.197 605.857L178.435 607.181L180.227 608.476L179.808 609.28L170.422 604.015L170.841 603.211L172.5 603.859L178.185 593.669L176.627 592.64L177.046 591.836L182.107 594.618L181.687 595.422L179.958 594.653L174.299 604.749L177.586 606.546L178.399 605.032C179.289 603.234 180.343 601.581 181.415 600.239Z" fill="black"/>
<path d="M153.367 593.538L153.881 592.759L155.515 593.502L161.719 583.655L160.377 582.582L160.891 581.803L165.495 584.768L164.98 585.547L163.441 584.829L157.238 594.677L158.58 595.75L158.066 596.528L153.367 593.538ZM166.18 595.138C164.881 594.28 164.109 593.36 163.768 592.352C163.427 591.344 163.612 590.273 164.323 589.14C165.06 587.911 166.049 587.26 167.222 587.065C168.395 586.87 169.63 587.201 170.954 587.963C171.119 588.109 171.309 588.16 171.473 588.306C171.638 588.452 171.802 588.598 171.993 588.648C172.581 589.112 173.101 589.455 173.525 589.772L175.697 591.169L175.183 591.948L173.739 591.255L167.535 601.103L168.687 602.125L168.173 602.903L163.639 600.059L164.153 599.28L165.882 600.049L168.187 596.388L166.18 595.138ZM171.522 589.643C171.358 589.497 171.098 589.325 170.648 589.103C169.774 588.563 168.919 588.334 168.152 588.536C167.385 588.738 166.732 589.276 166.071 590.219C165.532 591.093 165.328 591.854 165.53 592.621C165.732 593.388 166.27 594.041 167.143 594.581L168.796 595.635L172.155 590.322C171.947 589.96 171.782 589.814 171.522 589.643Z" fill="black"/>
<path d="M146.929 587.534L147.96 588.626L147.446 589.405L143.368 586.377L143.883 585.598L145.301 586.385L148.329 582.308L143.048 578.448L140.02 582.526L141.052 583.617L140.538 584.396L136.555 581.394L137.069 580.615L138.418 581.282L145.306 571.923L144.249 570.927L144.763 570.148L148.841 573.176L148.326 573.955L147.003 573.193L143.803 577.53L149.084 581.39L152.284 577.052L151.062 575.91L151.576 575.131L155.749 578.184L155.235 578.963L153.911 578.201L146.929 587.534Z" fill="black"/>
<path d="M131.091 577.078L129.515 575.738L134.099 562.809L133.327 561.889L133.911 561.231L137.773 564.303L137.164 565.056L135.866 564.199L134.842 566.879L139.103 570.363L141.564 568.781L140.438 567.665L141.021 567.006L144.459 569.761L143.876 570.419L142.812 569.829L131.091 577.078ZM132.096 574.087L131.473 575.652L132.875 574.602L138.089 571.11L134.416 568.088L132.096 574.087Z" fill="black"/>
<path d="M119.988 566.056L121.298 567.629L120.714 568.287L117.049 564.861L120.81 556.905L121.991 554.777L119.987 556.175L112.396 560.558L108.8 557.252L109.384 556.594L111.081 557.863L117.899 548.384L116.823 547.077L117.407 546.419L121.306 550.112L120.722 550.77L119.355 549.793L114.302 556.485L112.106 559.36L114.516 557.969L123.502 552.941L124.395 553.791L120.55 562.438L118.943 565.776L121.633 563.339L127.933 557.693L126.667 556.335L127.251 555.677L130.846 558.983L130.262 559.642L128.99 558.689L119.988 566.056Z" fill="black"/>
<path d="M103.66 552.106L102.23 550.603L108.354 538.391L107.702 537.402L108.381 536.769L111.805 540.334L111.126 540.967L109.854 540.015L108.45 542.593L112.299 546.476L114.899 545.136L113.918 543.854L114.597 543.221L117.717 546.4L117.038 547.033L116.095 546.373L103.66 552.106ZM105.045 549.218L104.232 550.732L105.773 549.922L111.43 547.058L108.075 543.613L105.045 549.218Z" fill="black"/>
<path d="M97.4528 543.72L98.2435 544.951L97.5646 545.584L95.9254 543.718C95.5962 543.426 95.2925 543.04 94.9632 542.748C94.4694 542.31 94.0011 541.777 93.6023 541.364C92.4314 540.032 91.8308 538.853 91.8003 537.826C91.7699 536.799 92.3096 535.925 93.2804 534.963C94.0543 534.356 94.8028 533.843 95.6394 533.762C96.5016 533.585 97.3823 533.719 98.2122 534.044C99.042 534.368 99.7955 534.977 100.498 535.777C100.732 536.043 100.966 536.309 101.201 536.576C101.435 536.842 101.574 537.083 101.669 537.109L104.746 534.368L103.158 532.313L103.836 531.68L107.912 536.235L107.234 536.868L106.081 535.847L97.4528 543.72ZM99.7937 536.504C99.1607 535.826 98.3563 535.406 97.5706 535.298C96.7849 535.189 95.7513 535.625 94.7805 536.587C93.9811 537.29 93.5873 537.999 93.5991 538.715C93.611 539.431 94.0029 540.249 94.7054 541.049C94.9396 541.315 95.2688 541.607 95.598 541.899C95.7626 542.045 95.9272 542.191 95.9968 542.312L100.939 537.932C100.705 537.665 100.332 537.158 99.7937 536.504Z" fill="black"/>
<path d="M97.7531 525.874C97.9482 527.047 97.7631 528.118 97.1724 529.182C96.6768 530.271 95.801 531.259 94.7352 532.195C93.6693 533.132 92.5153 533.638 91.3426 533.833C90.1699 534.028 88.9531 534.007 87.8637 533.512C86.7487 533.111 85.8052 532.451 84.9635 531.41C84.3561 530.637 83.7045 529.647 83.1038 528.468L82.851 527.891L85.5342 525.859L86.3063 526.779L84.7958 528.615C84.8399 528.831 84.8585 529.141 85.0417 529.598C85.2504 529.96 85.5287 530.441 85.9021 530.949C86.44 531.602 87.0543 531.971 87.8146 532.174C88.5748 532.378 89.4115 532.297 90.2991 532.025C91.1867 531.754 92.1506 531.197 93.0705 530.425C93.9904 529.653 94.6947 528.925 95.2345 528.051C95.7742 527.177 96.0984 526.347 96.1121 525.536C96.1257 524.725 95.8288 523.932 95.3164 523.184C94.9431 522.677 94.5188 522.359 94.1896 522.067C93.8604 521.775 93.5753 521.699 93.2647 521.718L91.369 522.33L90.7175 521.341L93.0069 520.019C93.1715 520.165 93.5007 520.457 93.925 520.774C94.3492 521.091 94.7039 521.288 95.0331 521.58C95.3623 521.872 95.666 522.259 96.1598 522.697C97.122 523.668 97.6531 524.727 97.7531 525.874Z" fill="black"/>
<path d="M67.2786 507.319L68.027 506.807L69.1724 508.234L76.993 502.996L74.2488 502.974L65.8145 502.14L65.4275 502.443L66.1418 503.959L65.3934 504.471L62.5783 500.152L63.3268 499.64L64.3585 500.731L74.0374 494.259L73.2976 492.839L74.0461 492.326L76.9562 496.671L76.2077 497.183L75.1319 495.876L67.1908 501.184L69.7449 501.156L78.3694 502.041L78.9719 501.693L78.1625 500.152L78.9109 499.639L81.821 503.984L81.0726 504.496L80.0663 503.31L70.3874 509.782L71.0322 511.177L70.2837 511.689L67.2786 507.319Z" fill="black"/>
<path d="M60.6559 496.683C60.2571 496.271 59.9533 495.884 59.6241 495.592C59.2949 495.3 59.1812 494.964 58.9471 494.697C58.1818 493.372 57.7712 492.243 57.7407 491.217C57.7103 490.19 58.1991 489.506 59.1631 488.949C60.0066 488.462 60.8687 488.286 61.724 488.515C62.5793 488.744 63.2632 489.233 63.8961 489.912C63.3396 488.948 63.0936 487.965 63.3227 487.11C63.5519 486.255 64.0408 485.571 64.7892 485.058C65.8992 484.337 67.0718 484.142 68.0917 484.517C69.1116 484.893 70.0993 485.768 71.0987 487.36C71.4465 487.963 71.7944 488.565 71.9522 489.117C72.1099 489.668 72.2932 490.125 72.4069 490.461C72.5206 490.797 72.5647 491.012 72.5392 491.107L69.6286 492.467L69.1416 491.623L70.9118 489.958C70.9 489.242 70.6031 488.45 70.021 487.581C69.6036 486.858 69.0148 486.394 68.4191 486.337C67.8235 486.279 66.9613 486.455 66.1179 486.942C65.4899 487.385 65.052 487.879 64.7787 488.519C64.6005 489.184 64.7769 490.046 65.3589 490.915L66.0801 492.025L65.2111 492.607L64.6546 491.643C64.3763 491.161 64.0471 490.869 63.6228 490.552C63.1986 490.234 62.7234 490.107 62.2228 490.075C61.7222 490.042 61.1706 490.2 60.5681 490.548C59.8451 490.966 59.5023 491.485 59.3495 492.055C59.2918 492.651 59.4241 493.297 59.8415 494.02C60.1198 494.502 60.4235 494.889 60.7782 495.086C61.1074 495.378 61.3925 495.454 61.608 495.41L63.2881 494.842L63.9398 495.831L61.5739 497.438C61.3838 497.387 61.1497 497.121 60.6559 496.683Z" fill="black"/>
<path d="M53.309 482.288L53.8332 483.753L53.0152 484.144L51.7884 481.88C51.5797 481.519 51.3014 481.037 50.9281 480.53C50.5548 480.022 50.3461 479.661 50.207 479.42C49.3976 477.879 49.1075 476.68 49.1466 475.774C49.2807 474.893 49.7696 474.21 50.7335 473.653C51.5516 473.261 52.3187 473.059 53.0789 473.263C53.8647 473.372 54.5485 473.86 55.0864 474.514C54.5554 473.455 54.3094 472.472 54.5386 471.617C54.7677 470.762 55.2565 470.078 56.1951 469.616C57.2795 468.99 58.4268 468.89 59.5162 469.386C60.6312 469.786 61.6629 470.878 62.681 472.78C62.8897 473.142 63.0729 473.598 63.2816 473.96C63.6736 474.778 63.9264 475.355 64.091 475.501L65.2482 477.644L64.4302 478.036L63.5444 476.78L53.309 482.288ZM56.3064 477.183L55.8449 476.245C55.4275 475.522 54.9591 474.989 54.2939 474.811C53.6287 474.632 52.9821 474.765 52.1641 475.157C51.4411 475.574 50.9081 476.042 50.7554 476.613C50.6026 477.183 50.8044 477.95 51.266 478.888C51.4747 479.25 51.753 479.732 51.9617 480.093L52.1704 480.455L56.7934 478.027C56.7934 478.027 56.5847 477.665 56.3064 477.183ZM61.958 473.197C61.3319 472.113 60.6989 471.434 59.9641 471.135C59.2293 470.837 58.4877 470.943 57.6442 471.43C56.8007 471.917 56.2678 472.386 56.1846 473.076C56.1014 473.767 56.2082 474.509 56.7648 475.473C57.3909 476.557 57.7133 477.255 57.922 477.616L62.8115 474.954C62.6723 474.713 62.4195 474.136 61.958 473.197Z" fill="black"/>
<path d="M44.8076 468.398L43.8845 466.521L53.4976 456.874L53.182 455.771L54 455.379L56.1685 459.831L55.3505 460.223L54.4902 458.872L52.333 460.84L54.6848 465.748L57.5562 465.295L57.0574 463.736L57.8755 463.344L59.7656 467.313L58.9476 467.705L58.296 466.716L44.8076 468.398ZM46.9716 466.024L45.6393 467.195L47.3635 466.842L53.6071 465.969L51.5082 461.638L46.9716 466.024Z" fill="black"/>
<path d="M52.1845 452.652C51.9994 453.723 51.5038 454.812 50.774 455.635C50.0442 456.458 48.9088 457.275 47.6343 457.85C46.3597 458.425 45.092 458.595 43.9006 458.479C42.7093 458.364 41.5944 457.963 40.6508 457.303C39.7073 456.643 38.9607 455.628 38.4551 454.474C38.0886 453.561 37.773 452.457 37.5084 451.164L37.3761 450.518L40.5463 449.33L41.0519 450.484L39.0476 451.882C38.9967 452.072 38.9898 452.478 39.078 452.909C39.1662 453.34 39.324 453.892 39.5768 454.469C39.8992 455.166 40.3421 455.794 41.0514 456.188C41.7608 456.582 42.5211 456.785 43.4527 456.729C44.3844 456.673 45.4621 456.453 46.6162 455.947C47.6497 455.511 48.6137 454.955 49.4131 454.252C50.2125 453.55 50.7013 452.866 50.9304 452.011C51.2546 451.181 51.1733 450.344 50.7813 449.526C50.5285 448.949 50.2502 448.467 50.016 448.201C49.7819 447.934 49.5477 447.668 49.1676 447.566L47.1396 447.532L46.824 446.428L49.4358 445.804C49.575 446.045 49.7837 446.407 50.0875 446.794C50.3912 447.181 50.7204 447.473 50.9291 447.834C51.1378 448.196 51.4161 448.677 51.6689 449.255C52.1745 450.409 52.3696 451.581 52.1845 452.652Z" fill="black"/>
<path d="M35.9938 440.47C34.923 440.285 33.9285 439.815 33.1751 439.206C32.4216 438.597 31.8396 437.728 31.4986 436.72C31.088 435.591 30.9625 434.539 31.2426 433.493C31.5227 432.448 31.9674 431.549 32.7668 430.846C33.5916 430.049 34.5556 429.492 35.8047 429.012C37.2693 428.488 38.537 428.318 39.7538 428.338C40.9452 428.454 42.0601 428.855 42.9086 429.489C43.7571 430.124 44.4341 431.019 44.8702 432.052C45.2808 433.181 45.3808 434.328 45.1957 435.399C45.0106 436.47 44.4709 437.343 43.6461 438.141C42.8212 438.939 41.8318 439.59 40.5827 440.07L41.6567 442.905L46.7481 441.009L46.3698 439.38L47.2573 439.109L49.0134 443.959L48.1258 444.231L47.386 442.81L36.5312 446.828L36.84 448.336L35.9524 448.608L34.1708 443.853L35.0584 443.581L35.7983 445.002L40.5536 443.22L39.4796 440.386C38.2814 440.676 37.0392 440.751 35.9938 440.47ZM34.8552 438.638C36.0907 438.969 37.6689 438.78 39.6155 437.978C41.3212 437.314 42.5516 436.524 43.3323 435.511C44.1131 434.497 44.2981 433.427 43.8875 432.298C43.4769 431.169 42.6285 430.535 41.4881 430.229C40.3477 429.924 38.7439 430.207 36.8228 430.914C35.1172 431.578 33.8867 432.368 33.1315 433.287C32.3507 434.3 32.1911 435.275 32.6017 436.404C32.8918 437.602 33.7148 438.332 34.8552 438.638Z" fill="black"/>
<path d="M34.2002 419.415C34.689 418.731 35.3238 417.883 36.1995 416.895C36.7834 416.237 37.2213 415.743 37.5387 415.319C37.8306 414.989 37.907 414.704 37.9579 414.514L37.9461 413.798L38.8337 413.527L39.5598 415.758C39.699 415.999 39.4766 416.449 39.1592 416.873C38.8164 417.392 38.2325 418.051 37.4077 418.848C36.5319 419.836 35.8276 420.564 35.3642 421.153C34.9009 421.742 34.7735 422.217 34.8872 422.553L35.2028 423.656L40.3128 422.071L40.055 420.373L40.9426 420.101L42.4831 424.996L41.5955 425.267L40.9507 423.872L29.8431 427.313L30.0568 428.796L29.1692 429.067L27.6983 424.294L28.5859 424.022L29.2306 425.417L34.3407 423.832L33.8418 422.273L27.551 420.282L27.8342 421.885L26.9467 422.157L25.5894 417.719L26.477 417.447L27.1472 418.747L33.5772 420.98C33.4636 420.644 33.7368 420.004 34.2002 419.415Z" fill="black"/>
<path d="M37.1894 410.539C36.8143 411.559 36.1795 412.408 35.2851 413.085C34.3907 413.762 33.2111 414.363 31.8925 414.722C30.4788 415.056 29.2366 415.131 28.0707 414.92C26.9048 414.71 25.9358 414.145 25.1128 413.415C24.2898 412.685 23.7333 411.721 23.4432 410.523C22.9257 408.653 23.1431 407.081 24.1207 405.714C25.0729 404.441 26.5443 403.511 28.6301 402.949C30.0437 402.615 31.381 402.566 32.5469 402.777C33.7128 402.987 34.7768 403.578 35.5998 404.308C36.4228 405.037 36.9794 406.001 37.2695 407.2C37.5596 408.398 37.5646 409.52 37.1894 410.539ZM26.5333 412.675C27.7433 413.101 29.2961 413.008 31.2614 412.516C33.1061 412.094 34.4316 411.328 35.2819 410.436C36.1322 409.543 36.4378 408.403 36.1222 407.3C35.8321 406.102 35.0091 405.372 33.7992 404.946C32.5892 404.52 30.9413 404.587 28.9761 405.079C27.1313 405.502 25.8059 406.267 24.9555 407.16C24.1052 408.052 23.8251 409.097 24.1152 410.296C24.6209 411.45 25.4184 412.275 26.5333 412.675Z" fill="black"/>
<path d="M22.3392 400.958L22.4324 402.511L21.5703 402.688L21.0156 400.196C20.9274 399.765 20.7696 399.214 20.6118 398.662C20.454 398.11 20.2708 397.654 20.2521 397.343C19.8993 395.619 19.9198 394.402 20.244 393.572C20.5682 392.743 21.3167 392.23 22.2993 391.984C23.1614 391.808 23.9471 391.916 24.6819 392.215C25.3913 392.609 25.9547 393.167 26.3466 393.985C26.0565 392.787 26.0956 391.881 26.5149 391.077C26.9341 390.272 27.6826 389.76 28.6397 389.609C29.8379 389.319 31.0037 389.529 31.9218 390.285C32.8653 390.945 33.6051 392.365 34.0021 394.305C34.0903 394.736 34.1785 395.167 34.1717 395.573C34.3226 396.53 34.4804 397.081 34.5245 397.297L35.1047 399.693L34.2426 399.87L33.7183 398.405L22.3392 400.958ZM26.584 396.901L26.338 395.918C26.1615 395.056 25.8137 394.454 25.1994 394.085C24.6801 393.743 23.8944 393.634 23.0068 393.905C22.1447 394.082 21.5422 394.43 21.2943 394.974C21.0465 395.519 20.9378 396.305 21.1584 397.382C21.2466 397.814 21.3348 398.245 21.518 398.701L21.6317 399.037L26.7094 397.953C26.7604 397.763 26.6467 397.427 26.584 396.901ZM33.0195 394.551C32.7294 393.353 32.3374 392.535 31.6535 392.046C31.0647 391.583 30.2789 391.474 29.2963 391.72C28.3391 391.871 27.7112 392.314 27.4634 392.859C27.1205 393.378 27.0814 394.284 27.3019 395.362C27.592 396.56 27.7685 397.422 27.8821 397.758L33.2959 396.56C33.3723 396.275 33.24 395.629 33.0195 394.551Z" fill="black"/>
<path d="M15.8775 372.235L16.8346 372.084L17.3334 373.643L28.8194 371.832L28.7771 370.089L29.7343 369.938L30.5773 375.155L29.6201 375.306L29.2163 373.772L17.7304 375.583L18.6803 381.542L30.2612 379.756L30.2189 378.013L31.1761 377.862L31.9241 383.053L30.9669 383.204L30.5376 381.765L19.0517 383.576L19.0244 385.199L18.0673 385.35L15.8775 372.235Z" fill="black"/>
<path d="M28.5094 366.147C28.0647 367.046 27.2398 367.844 26.2759 368.4C25.3119 368.957 24.0882 369.342 22.6304 369.461C21.1727 369.579 19.8863 369.438 18.7714 369.038C17.6564 368.637 16.7129 367.977 16.0358 367.083C15.3588 366.188 14.9227 365.155 14.8227 364.007C14.6158 362.119 15.0487 360.503 16.1655 359.376C17.2822 358.249 18.8928 357.561 21.0923 357.335C22.5501 357.216 23.8364 357.357 24.9514 357.758C26.0663 358.159 27.0098 358.819 27.7819 359.739C28.4589 360.633 28.895 361.667 28.995 362.814C29.1392 364.177 28.9541 365.247 28.5094 366.147ZM17.6651 366.704C18.8241 367.32 20.326 367.417 22.4049 367.261C24.2938 367.054 25.6379 366.6 26.6783 365.758C27.6932 365.011 28.1634 364.017 27.9938 362.749C27.8937 361.602 27.2167 360.708 26.0576 360.092C24.8986 359.475 23.3017 359.353 21.3178 359.534C19.4289 359.741 17.9898 360.171 17.0444 361.038C16.0295 361.784 15.6544 362.804 15.824 364.072C15.8985 365.314 16.5756 366.209 17.6651 366.704Z" fill="black"/>
<path d="M22.6013 351.322C24.2933 351.47 25.6492 351.732 26.5486 352.176C26.9983 352.399 27.3275 352.691 27.5617 352.957C27.7704 353.319 27.8841 353.655 27.9723 354.086C28.0096 354.707 28.0028 355.113 27.9264 355.398L26.4431 355.611C26.4245 355.301 26.4313 354.895 26.4195 354.179C26.3754 353.963 26.3313 353.748 26.1667 353.602C26.0021 353.456 25.8375 353.31 25.5778 353.139C24.0641 352.326 20.9907 352.011 16.4273 352.316L14.9695 352.435L14.9099 354.558L13.9782 354.614L13.3003 343.839L14.232 343.783L14.5849 345.508L26.1963 344.748L26.2745 342.936L27.2062 342.88L27.6113 348.591L26.6796 348.647L26.3777 346.732L14.7917 347.396L14.99 351.218L16.6378 351.151C18.9764 351.166 20.9094 351.175 22.6013 351.322Z" fill="black"/>
<path d="M14.4326 340.374L14.2153 341.945L13.2836 342.001L13.0858 332.476L16.0269 332.143L16.0573 333.17L14.2821 333.713L14.2512 338.39L19.4799 338.263L19.3885 335.183L17.8171 334.966L17.7866 333.939L22.0836 333.868L22.114 334.895L20.5103 335.178L20.4812 338.328L26.0204 338.182L25.7035 332.903L23.309 331.956L23.6146 330.815L26.8526 331.275L27.0366 341.612L26.105 341.668L25.9167 340.09L14.4326 340.374Z" fill="black"/>
<path d="M14.2167 324.834L14.2826 328.009L18.1603 328.743L18.1399 329.959L13.159 329.541L13.4265 317.9L18.4396 317.817L18.4191 319.034L14.4955 319.612L14.3459 322.831L26.1082 323.029L26.3206 320.336L27.2268 320.375L27.0599 327.46L26.1537 327.421L26.0045 324.937L14.2167 324.834Z" fill="black"/>
<path d="M21.6426 310.425L21.6035 311.331C21.8122 311.692 22.1414 311.984 22.7557 312.353C23.275 312.695 23.9843 313.089 24.8838 313.534C25.7832 313.979 26.3975 314.347 26.8472 314.569C27.2969 314.792 27.5311 315.058 27.4801 315.248L27.3187 317.751L26.4125 317.712L26.3056 316.971C26.2615 316.755 26.0969 316.609 25.8627 316.343C25.5081 316.146 25.0838 315.828 24.3999 315.34C23.5956 314.92 23.0067 314.457 22.4875 314.114C21.9682 313.771 21.6644 313.384 21.4557 313.023C21.1315 313.853 20.6682 314.442 19.9197 314.954C19.1967 315.371 18.4296 315.573 17.4284 315.509C15.9265 315.412 14.932 314.942 14.3755 313.978C13.8189 313.014 13.6493 311.746 13.7717 310.149C13.7785 309.743 13.8803 309.363 13.9381 308.768C13.9958 308.172 14.1232 307.697 14.1045 307.386L14.3169 304.693L15.2231 304.732L15.3163 306.285L26.9259 307.053L27.1942 305.292L28.1004 305.331L27.7452 310.838L26.839 310.798L26.8222 308.961L21.8159 308.638L21.6426 310.425ZM14.8698 308.712C14.717 309.282 14.6847 309.783 14.6779 310.188C14.6133 311.189 14.7202 311.931 15.1885 312.464C15.6569 312.997 16.2966 313.27 17.3929 313.36C18.3942 313.425 19.1613 313.223 19.7892 312.78C20.4172 312.337 20.6209 311.577 20.7805 310.601C20.8451 309.6 20.9028 309.004 20.8146 308.573L15.1176 308.167L14.8698 308.712Z" fill="black"/>
<path d="M15.8144 297.964L15.5698 301.158L19.3711 302.177L19.2557 303.368L14.2816 302.544L15.5503 290.967L20.5566 291.29L20.4411 292.481L16.5243 292.654L16.0641 295.892L27.7364 297.186L28.2339 294.569L29.1147 294.704L28.3266 301.826L27.4458 301.692L27.4868 299.258L15.8144 297.964Z" fill="black"/>
<path d="M29.9387 284.026C29.2089 284.849 28.2194 285.5 27.1163 285.816C26.0132 286.131 24.6759 286.181 23.3199 285.919C21.964 285.658 20.754 285.232 19.836 284.476C18.9179 283.721 18.1458 282.801 17.7353 281.673C17.3247 280.544 17.2246 279.397 17.4606 278.136C17.6202 277.16 17.9258 276.02 18.4469 274.835L18.6947 274.29L21.9768 274.966L21.7408 276.227L19.2818 276.281C19.1358 276.446 18.9643 276.705 18.742 277.155C18.5451 277.51 18.3923 278.08 18.3346 278.676C18.2259 279.461 18.3328 280.203 18.6551 280.9C18.9775 281.598 19.5409 282.156 20.4148 282.696C21.1937 283.21 22.2391 283.49 23.5 283.726C24.6659 283.937 25.6926 283.907 26.7448 283.781C27.702 283.63 28.615 283.264 29.2684 282.726C29.9219 282.188 30.3157 281.478 30.4753 280.503C30.5585 279.812 30.5907 279.311 30.5721 279.001C30.5535 278.69 30.4398 278.354 30.2311 277.993L28.5782 276.939L28.8838 275.798L31.3988 276.676C31.3224 276.961 31.4361 277.297 31.4988 277.823C31.587 278.254 31.5547 278.755 31.6429 279.186C31.7312 279.617 31.6038 280.092 31.5206 280.783C31.1896 282.018 30.6939 283.108 29.9387 284.026Z" fill="black"/>
<path d="M19.705 266.718L20.5858 266.852L20.4125 268.639L29.568 270.583L27.6437 268.642L22.29 262.013L21.8149 261.885L21.2869 263.475L20.4062 263.341L21.4452 258.323L22.326 258.457L22.2291 259.959L33.5959 262.394L34.0983 260.899L34.9536 261.128L33.8891 266.241L33.0338 266.012L33.1816 264.32L23.836 262.325L25.6908 264.146L31.114 270.896L31.7793 271.074L32.3327 269.389L33.2134 269.523L32.1489 274.636L31.2681 274.502L31.3905 272.905L20.0237 270.471L19.5467 271.871L18.6659 271.736L19.705 266.718Z" fill="black"/>
<path d="M24.2855 246.963L29.0881 248.046L28.7571 249.281L24.993 248.884L23.8285 252.85L35.2835 255.715L36.3138 252.63L37.1691 252.86L35.3798 259.917L34.5245 259.688L34.8692 257.642L23.6043 254.827L22.905 256.677L22.0497 256.448L24.2855 246.963Z" fill="black"/>
<path d="M26.2661 244.132L25.599 245.482L24.7437 245.252L26.2579 240.362L27.1132 240.591L26.8958 242.162L31.6916 243.651L33.5878 237.335L28.792 235.846L28.1249 237.195L27.2696 236.966L28.7584 232.17L29.6137 232.399L29.4218 233.876L40.5339 237.261L41.1059 235.886L41.9612 236.115L40.4725 240.911L39.6172 240.682L39.9296 239.136L34.7537 237.545L32.8575 243.862L38.0334 245.452L38.6309 243.982L39.4862 244.212L37.972 249.103L37.1167 248.873L37.4036 247.422L26.2661 244.132Z" fill="black"/>
<path d="M30.8006 225.689L31.5254 223.744L45.1766 223.735L45.7673 222.671L46.5971 222.996L44.9438 227.645L44.114 227.321L44.4263 225.775L41.4921 225.702L39.7115 230.827L41.9972 232.56L42.6898 231.116L43.5196 231.44L42.0886 235.64L41.2588 235.316L41.4693 234.15L30.8006 225.689ZM34.0708 225.649L32.3789 225.501L33.8416 226.504L38.8375 230.287L40.4399 225.827L34.0708 225.649Z" fill="black"/>
<path d="M43.6958 216.718C45.184 217.626 46.2922 218.432 46.8997 219.206C47.2034 219.593 47.3866 220.049 47.5003 220.385C47.5885 220.816 47.4866 221.197 47.3848 221.577C47.137 222.121 46.9401 222.476 46.7687 222.736L45.3686 222.259C45.5401 221.999 45.6674 221.524 45.9152 220.979C45.9661 220.789 46.0425 220.504 45.973 220.383C45.9288 220.168 45.7897 219.927 45.6506 219.686C44.6002 218.284 41.9784 216.665 37.7341 215.018L36.3596 214.446L35.3496 216.315L34.5198 215.99L38.5308 205.963L39.3607 206.287L38.9023 207.998L49.6648 212.307L50.5032 210.699L51.3331 211.023L49.1909 216.357L48.3611 216.032L48.8704 214.132L38.1079 209.822L36.6651 213.306L38.2298 213.929C40.3832 215.015 42.2075 215.81 43.6958 216.718Z" fill="black"/>
<path d="M46.7059 200.922C47.373 199.573 48.1283 198.655 49.1618 198.218C50.1954 197.782 51.1966 197.847 52.3811 198.368C53.6352 199.01 54.5278 199.86 54.8179 201.058C55.1335 202.161 54.9925 203.448 54.3254 204.797C54.2745 204.987 54.1285 205.151 54.0776 205.342C53.9316 205.506 53.8807 205.696 53.7093 205.956C53.341 206.57 53.0932 207.115 52.8453 207.66L51.8286 209.934L51.0242 209.514L51.5267 208.019L40.9425 203.044L40.0854 204.342L39.281 203.923L41.4859 199.116L42.2903 199.535L41.7114 201.315L45.5942 203.17L46.7059 200.922ZM46.7087 187.987L47.5131 188.406L46.9597 190.091L57.4489 195.041L58.3569 193.552L59.1613 193.972L56.8104 198.944L56.0061 198.525L56.5594 196.839L46.0703 191.89L45.1622 193.378L44.3578 192.959L46.7087 187.987ZM52.8794 205.632C53.0254 205.467 53.1273 205.087 53.3242 204.732C53.7689 203.833 53.808 202.927 53.5111 202.134C53.2142 201.341 52.5557 200.758 51.5613 200.287C50.6619 199.843 49.7556 199.804 49.0836 200.031C48.3861 200.353 47.8277 200.917 47.383 201.816L46.614 203.545L52.3211 206.195C52.5621 206.056 52.7335 205.796 52.8794 205.632Z" fill="black"/>
<path d="M51.7683 180.888L50.8416 182.066L50.0373 181.647L52.5459 177.226L53.3503 177.645L52.7528 179.115L57.1989 181.528L60.3746 175.759L55.9285 173.345L55.0018 174.523L54.1974 174.104L56.5856 169.752L57.39 170.172L56.913 171.572L67.1034 177.256L68.0301 176.078L68.8344 176.498L66.4208 180.944L65.6164 180.525L66.214 179.055L61.4132 176.444L58.2375 182.214L63.0382 184.825L64.0159 183.457L64.8202 183.876L62.2861 188.392L61.4817 187.973L62.0538 186.598L51.7683 180.888Z" fill="black"/>
<path d="M60.1923 163.894L61.2718 162.147L74.6343 165.116L75.3896 164.198L76.1685 164.712L73.5207 168.892L72.7418 168.377L73.4343 166.933L70.5833 166.169L67.7131 170.799L69.5611 173.025L70.6083 171.778L71.3872 172.292L69.0568 176.048L68.2779 175.534L68.7735 174.444L60.1923 163.894ZM63.2843 164.519L61.6688 164.086L62.8651 165.324L66.9852 170.094L69.487 166.079L63.2843 164.519Z" fill="black"/>
<path d="M69.7582 151.383L68.4191 152.959L67.6402 152.445L70.5476 148.437L78.8783 151.178L81.1778 152.1L79.5386 150.235L74.1917 143.2L77.0991 139.192L77.878 139.706L76.8936 141.479L87.2299 146.999L88.3722 145.777L89.1511 146.291L85.9263 150.724L85.1474 150.21L85.9604 148.696L78.6328 144.492L75.4408 142.72L77.1936 144.921L83.3312 153.186L82.6456 154.225L73.5987 151.495L70.0383 150.337L72.767 152.698L79.1424 158.175L80.3356 156.763L81.1145 157.278L78.3276 161.216L77.5487 160.702L78.3362 159.283L69.7582 151.383Z" fill="black"/>
<path d="M81.4659 133.538L82.71 131.936L95.665 136.426L96.4898 135.628L97.2433 136.237L94.1713 140.1L93.4178 139.49L94.2749 138.192L91.5954 137.168L88.2059 141.455L89.8129 143.821L90.9296 142.694L91.6831 143.303L88.9285 146.741L88.175 146.132L88.7657 145.068L81.4659 133.538ZM84.4815 134.447L82.9169 133.825L83.9672 135.226L87.4593 140.44L90.3854 136.742L84.4815 134.447Z" fill="black"/>
<path d="M89.0101 126.29L87.8493 127.201L87.0958 126.592L88.7268 124.686C89.0188 124.357 89.3107 124.028 89.5076 123.673C89.9455 123.179 90.2883 122.66 90.7262 122.166C91.8939 120.85 93.0293 120.033 93.9865 119.882C94.9436 119.731 95.9635 120.107 96.9512 120.982C97.7046 121.592 98.2171 122.34 98.4885 123.228C98.76 124.115 98.7463 124.926 98.5171 125.782C98.288 126.637 97.8433 127.537 97.1389 128.264C96.8725 128.499 96.6756 128.853 96.4091 129.088C96.1426 129.322 95.9967 129.486 95.9712 129.581L99.1241 132.26L100.92 130.5L101.578 131.084L97.5863 135.718L96.9279 135.134L97.785 133.836L89.0101 126.29ZM96.4805 127.681C97.0898 126.927 97.414 126.097 97.3326 125.261C97.2512 124.424 96.7643 123.581 95.7071 122.584C94.8841 121.854 94.1493 121.556 93.4076 121.663C92.666 121.769 92.038 122.212 91.1877 123.105C90.8958 123.434 90.6989 123.789 90.407 124.118C90.2356 124.378 90.1151 124.447 90.0896 124.542L95.1482 128.852C95.4842 128.738 95.8966 128.339 96.4805 127.681Z" fill="black"/>
<path d="M106.847 124.347C105.743 124.662 104.647 124.572 103.507 124.267C102.392 123.866 101.328 123.275 100.271 122.279C99.3085 121.308 98.5618 120.293 98.1767 119.07C97.7661 117.941 97.7866 116.724 97.9971 115.559C98.3027 114.418 98.7983 113.329 99.7437 112.462C100.448 111.734 101.247 111.031 102.478 110.24L102.985 109.867L105.283 112.316L104.433 113.209L102.33 111.932C102.115 111.976 101.778 112.09 101.417 112.299C101.056 112.507 100.643 112.906 100.231 113.305C99.6723 113.868 99.3735 114.603 99.2903 115.294C99.1816 116.08 99.3835 116.847 99.75 117.76C100.142 118.578 100.819 119.472 101.712 120.323C102.509 121.147 103.478 121.713 104.378 122.157C105.277 122.602 106.158 122.736 106.994 122.655C107.831 122.573 108.554 122.156 109.233 121.523C109.671 121.029 109.988 120.605 110.16 120.345C110.331 120.086 110.433 119.706 110.414 119.395L109.586 117.543L110.506 116.771L112.164 118.947C112.018 119.112 111.821 119.466 111.573 120.011C111.351 120.461 111.154 120.815 110.957 121.17C110.76 121.525 110.443 121.949 110.005 122.443C108.939 123.38 107.855 124.006 106.847 124.347Z" fill="black"/>
<path d="M117.916 94.8203L118.548 95.4992L117.355 96.911L123.634 103.89L123.251 101.139L122.868 92.6841L122.564 92.2972L121.188 93.2525L120.555 92.5736L124.431 89.1306L125.064 89.8095L124.137 90.9872L131.89 99.6853L133.146 98.7996L133.779 99.4784L129.903 102.921L129.27 102.243L130.412 101.021L124.064 93.9214L124.498 96.4823L124.83 105.127L125.299 105.66L126.7 104.61L127.333 105.289L123.431 108.827L122.799 108.148L123.82 106.996L116.067 98.2974L114.837 99.0882L114.204 98.4093L117.916 94.8203Z" fill="black"/>
<path d="M127.596 86.8213C127.914 86.397 128.231 85.9728 128.523 85.6436C128.815 85.3144 129.082 85.0802 129.348 84.846C130.534 83.8397 131.688 83.3341 132.646 83.1832C133.603 83.0322 134.407 83.4515 135.11 84.2508C135.717 85.0247 136.014 85.8173 135.88 86.6981C135.746 87.5788 135.447 88.3136 134.838 89.0671C135.732 88.39 136.645 88.0236 137.526 88.1577C138.432 88.1968 139.141 88.5906 139.749 89.3645C140.591 90.4049 140.906 91.508 140.721 92.5788C140.536 93.6497 139.73 94.7578 138.302 95.9032C137.77 96.3715 137.167 96.7194 136.685 96.9976C136.203 97.2759 135.747 97.4592 135.411 97.5729C135.074 97.6865 134.859 97.7306 134.833 97.8257L133.018 95.0983L133.792 94.4908L135.723 96.0268C136.37 95.8945 137.188 95.5026 137.987 94.8001C138.64 94.2621 139.009 93.6478 138.971 93.0267C138.96 92.3105 138.732 91.6385 138.03 90.8391C137.587 90.2111 136.972 89.8428 136.282 89.7596C135.591 89.6764 134.799 89.9733 133.904 90.6504L132.864 91.492L132.161 90.6926L132.961 89.9901C133.348 89.6864 133.665 89.2622 133.887 88.8125C134.11 88.3627 134.237 87.8876 134.174 87.3615C134.111 86.8354 133.833 86.3534 133.46 85.8459C132.922 85.1925 132.403 84.8497 131.782 84.887C131.16 84.9242 130.583 85.177 129.955 85.6199C129.543 86.0187 129.251 86.3479 128.959 86.6771C128.667 87.0063 128.686 87.3169 128.73 87.5324L129.539 89.0734L128.62 89.8455L126.651 87.6884C126.892 87.5492 127.184 87.22 127.596 86.8213Z" fill="black"/>
<path d="M140.783 77.5207L139.363 78.2605L138.85 77.5121L140.88 76.0188C141.242 75.8101 141.654 75.4113 142.162 75.038C142.574 74.6393 142.961 74.3355 143.202 74.1964C144.604 73.146 145.758 72.6404 146.664 72.6795C147.57 72.7186 148.375 73.1379 148.982 73.9118C149.495 74.6602 149.697 75.4273 149.683 76.2385C149.669 77.0497 149.275 77.7591 148.692 78.4175C149.612 77.6454 150.594 77.3994 151.5 77.4385C152.407 77.4776 153.186 77.9919 153.698 78.7403C154.445 79.7553 154.665 80.8329 154.455 81.9988C154.244 83.1646 153.222 84.3169 151.554 85.6014C151.167 85.9051 150.806 86.1139 150.444 86.3226C149.601 86.8095 149.188 87.2083 148.973 87.2524L146.943 88.7457L146.43 87.9972L147.522 86.9655L140.783 77.5207ZM146.187 79.7834L147.056 79.2014C147.804 78.6889 148.172 78.0746 148.23 77.4789C148.288 76.8833 148.086 76.1162 147.574 75.3677C147.061 74.6193 146.542 74.2764 145.946 74.2187C145.35 74.1609 144.558 74.4578 143.784 75.0653C143.397 75.3691 143.036 75.5778 142.744 75.907L142.477 76.1412L145.533 80.3213C145.438 80.2958 145.8 80.0871 146.187 79.7834ZM150.972 84.7325C151.987 83.9858 152.596 83.2324 152.705 82.4466C152.814 81.6609 152.612 80.8938 152.099 80.1454C151.492 79.3715 150.903 78.9081 150.307 78.8504C149.616 78.7671 148.919 79.0895 148.025 79.7666C147.01 80.5132 146.382 80.9561 146.115 81.1902L149.38 85.7319C149.596 85.6878 150.103 85.3145 150.972 84.7325Z" fill="black"/>
<path d="M153.344 67.1358L155.082 65.9717L166.017 74.1984L167.076 73.6673L167.589 74.4157L163.485 77.1867L162.973 76.4382L164.159 75.432L161.899 73.604L157.313 76.6533L158.102 79.4111L159.522 78.6713L160.035 79.4197L156.318 81.8869L155.806 81.1385L156.63 80.3409L153.344 67.1358ZM156.01 68.9705L154.668 67.8979L155.236 69.578L156.972 75.6452L160.93 73.0388L156.01 68.9705Z" fill="black"/>
<path d="M169.917 72.1877C168.796 72.1927 167.776 71.8175 166.712 71.2269C165.768 70.5666 164.901 69.6213 164.11 68.3908C163.415 67.1859 163.03 65.9622 162.93 64.815C162.83 63.6678 163.161 62.4323 163.726 61.4634C164.316 60.3994 165.141 59.6018 166.251 58.8807C167.095 58.3937 168.128 57.9576 169.472 57.5029L170.049 57.2501L171.599 60.2116L170.514 60.8377L168.849 59.0675C168.659 59.0166 168.323 59.1303 167.892 59.2185C167.461 59.3067 166.979 59.585 166.497 59.8633C165.774 60.2807 165.311 60.8695 165.038 61.5093C164.739 62.2441 164.63 63.0299 164.781 63.987C164.932 64.9442 165.368 65.9777 166.02 66.9672C166.671 67.9566 167.348 68.851 168.102 69.4603C168.855 70.0697 169.66 70.4889 170.515 70.7181C171.37 70.9472 172.137 70.7454 172.981 70.2584C173.583 69.9105 173.97 69.6068 174.142 69.3471C174.408 69.113 174.605 68.7583 174.681 68.4732L174.405 66.4639L175.464 65.9328L176.424 68.4309C176.183 68.5701 175.917 68.8042 175.6 69.2285C175.308 69.5577 175.016 69.8869 174.629 70.1906C174.337 70.5198 173.855 70.7981 173.373 71.0764C172.237 71.8926 171.039 72.1827 169.917 72.1877Z" fill="black"/>
<path d="M179.667 54.4287C179.757 53.3324 180.037 52.287 180.577 51.4131C181.116 50.5391 181.795 49.9062 182.759 49.3496C183.844 48.7235 184.922 48.503 185.923 48.5675C186.924 48.6321 187.944 49.0073 188.767 49.7371C189.59 50.4669 190.362 51.3868 191.083 52.4967C191.848 53.8222 192.208 55.1408 192.283 56.3831C192.357 57.6254 192.172 58.6962 191.607 59.6652C191.042 60.6341 190.337 61.3621 189.373 61.9187C188.289 62.5448 187.211 62.7653 186.115 62.6753C185.114 62.6107 184.094 62.2356 183.245 61.6008C182.397 60.966 181.53 60.0207 180.929 58.8412L178.304 60.2767L180.896 65.0457L182.386 64.4264L182.778 65.2444L178.25 67.6979L177.858 66.8799L179.114 65.9942L173.607 55.7587L172.142 56.2829L171.655 55.4395L176.062 53.0554L176.549 53.8989L175.294 54.7847L177.678 59.1922L180.398 57.7822C179.867 56.7231 179.646 55.6455 179.667 54.4287ZM181.43 53.1696C181.289 54.456 181.693 55.9902 182.737 57.7976C183.641 59.3641 184.552 60.525 185.711 61.1411C186.87 61.7573 187.872 61.8218 189.051 61.2212C190.11 60.6901 190.675 59.7211 190.696 58.5043C190.716 57.2875 190.312 55.7533 189.364 53.9713C188.46 52.4048 187.548 51.244 186.484 50.6533C185.42 50.0626 184.324 49.9726 183.265 50.5037C182.206 51.0348 181.571 51.8833 181.43 53.1696Z" fill="black"/>
<path d="M200.39 49.694C201.1 50.0878 201.973 50.6275 203.133 51.2437C203.911 51.7579 204.431 52.1008 204.88 52.3231C205.33 52.5455 205.52 52.5964 205.736 52.5523L206.477 52.4455L206.869 53.2635L204.777 54.2306C204.536 54.3698 204.156 54.2679 203.611 54.0201C203.066 53.7723 202.382 53.2835 201.439 52.6232C200.426 51.8425 199.552 51.3027 198.937 50.9344C198.323 50.5661 197.822 50.5338 197.486 50.6475L196.427 51.1786L198.71 55.9662L200.269 55.4674L200.661 56.2854L195.994 58.498L195.602 57.68L196.928 56.9147L191.997 46.4264L190.558 46.8556L190.166 46.0376L194.712 43.8946L195.104 44.7126L193.753 45.5729L196.01 50.4556L197.43 49.7158L198.566 43.1958L197.007 43.6946L196.615 42.8765L200.8 40.9422L201.192 41.7603L199.961 42.551L198.585 49.2102C198.99 49.217 199.655 49.3952 200.39 49.694Z" fill="black"/>
<path d="M209.597 51.4479C208.526 51.2629 207.652 50.7231 206.854 49.8983C206.057 49.0734 205.31 48.0585 204.76 46.6889C204.211 45.3194 203.921 44.1212 204.036 42.9299C204.152 41.7385 204.432 40.6932 205.092 39.7496C205.752 38.8061 206.647 38.1291 207.68 37.693C209.506 36.96 211.034 36.9619 212.478 37.6544C213.922 38.3469 215.067 39.7743 215.87 41.7209C216.42 43.0905 216.684 44.3836 216.569 45.575C216.453 46.7663 216.148 47.9067 215.487 48.8502C214.827 49.7937 213.933 50.4708 212.899 50.9069C211.72 51.5075 210.667 51.633 209.597 51.4479ZM205.996 41.3161C205.76 42.577 206.069 44.0857 206.777 46.0069C207.535 47.738 208.421 48.9939 209.459 49.6796C210.472 50.4603 211.569 50.5504 212.723 50.0447C213.851 49.6341 214.512 48.6906 214.748 47.4297C214.984 46.1688 214.7 44.5651 213.872 42.7135C213.114 40.9824 212.228 39.7265 211.189 39.0408C210.151 38.3551 209.08 38.17 207.926 38.6756C206.867 39.2067 206.232 40.0552 205.996 41.3161Z" fill="black"/>
<path d="M216.955 35.3907L215.446 35.6994L215.175 34.8119L217.552 33.9211C217.983 33.8329 218.465 33.5546 219.042 33.3018C219.619 33.049 219.981 32.8403 220.292 32.8216C221.877 32.2278 223.144 32.0582 224 32.2874C224.855 32.5166 225.513 33.1004 225.854 34.1085C226.151 34.9011 226.233 35.7377 225.934 36.4725C225.635 37.2073 225.146 37.8912 224.423 38.3086C225.552 37.898 226.484 37.8421 227.339 38.0713C228.194 38.3005 228.827 38.9793 229.168 39.9874C229.579 41.116 229.558 42.3328 228.993 43.3018C228.403 44.3658 227.147 45.2516 225.225 45.9591C224.769 46.1423 224.433 46.256 224.002 46.3442C223.114 46.6157 222.537 46.8685 222.322 46.9126L219.944 47.8033L219.647 47.0108L221.068 46.271L216.955 35.3907ZM221.571 39.072L222.579 38.731C223.371 38.4341 223.904 37.9658 224.177 37.326C224.451 36.6862 224.439 35.9701 224.047 35.152C223.75 34.3595 223.282 33.8266 222.737 33.5787C222.192 33.3309 221.356 33.4123 220.347 33.7533C219.891 33.9366 219.529 34.1453 219.073 34.3285L218.711 34.5372L220.562 39.4131C220.683 39.3435 221.019 39.2298 221.571 39.072ZM224.738 45.1156C225.867 44.705 226.641 44.0975 227.035 43.3882C227.429 42.6788 227.417 41.9627 227.076 40.9546C226.709 40.0415 226.241 39.5086 225.696 39.2608C225.056 38.9875 224.22 39.0689 223.186 39.5049C221.963 39.8901 221.265 40.2125 220.929 40.3261L222.894 45.538C223.153 45.7094 223.825 45.4821 224.738 45.1156Z" fill="black"/>
<path d="M244.479 25.0427L244.75 25.9303L243.33 26.6701L246.675 37.7523L248.4 37.3994L248.671 38.287L243.682 39.8021L243.41 38.9145L244.805 38.2697L241.39 27.0671L235.633 28.784L239.049 39.9867L240.773 39.6338L241.044 40.5214L236.055 42.0365L235.783 41.1489L237.178 40.5041L233.833 29.422L232.229 29.7052L231.957 28.8176L244.479 25.0427Z" fill="black"/>
<path d="M252.279 36.6056C251.259 36.2304 250.411 35.5957 249.734 34.7013C249.057 33.8068 248.551 32.6528 248.217 31.2391C247.883 29.8254 247.808 28.5832 248.044 27.3223C248.255 26.1564 248.82 25.1874 249.55 24.3644C250.279 23.5414 251.243 22.9848 252.442 22.6947C254.312 22.1773 255.883 22.3946 257.251 23.3723C258.524 24.3244 259.454 25.7959 259.99 27.9767C260.324 29.3903 260.373 30.7276 260.162 31.8935C259.926 33.1544 259.361 34.1234 258.536 34.9209C257.712 35.7185 256.748 36.275 255.644 36.5906C254.326 36.9503 253.299 36.9807 252.279 36.6056ZM250.143 25.9495C249.717 27.1595 249.811 28.7123 250.303 30.6776C250.725 32.5223 251.49 33.8478 252.383 34.6981C253.275 35.5484 254.416 35.854 255.519 35.5384C256.717 35.2483 257.421 34.5203 257.873 33.2153C258.299 32.0053 258.231 30.3575 257.739 28.3922C257.317 26.5475 256.552 25.222 255.659 24.3717C254.766 23.5214 253.721 23.2413 252.523 23.5314C251.369 24.037 250.544 24.8346 250.143 25.9495Z" fill="black"/>
<path d="M266.206 28.7255C266.343 30.4938 266.202 31.7802 265.827 32.8001C265.7 33.2753 265.383 33.6995 265.116 33.9337C264.85 34.1679 264.488 34.3766 264.057 34.4648C263.505 34.6226 263.005 34.5903 262.789 34.6344L262.36 33.1952C262.671 33.1766 263.102 33.0884 263.748 32.9561C263.964 32.912 264.179 32.8678 264.325 32.7032C264.471 32.5386 264.617 32.374 264.694 32.0889C265.342 30.4293 265.13 27.4186 264.204 22.8925L263.87 21.4788L261.67 21.7043L261.494 20.8422L272.055 18.681L272.231 19.5432L270.551 20.1115L272.889 31.5347L274.778 31.3278L274.954 32.1899L269.35 33.3367L269.174 32.4746L271.07 31.8621L268.732 20.4389L265.068 21.1887L265.446 22.8179C265.767 25.0428 266.043 27.0522 266.206 28.7255Z" fill="black"/>
<path d="M275.819 19.0784L274.292 19.0766L274.141 18.1195L283.522 16.559L284.286 19.4118L283.233 19.5373L282.38 17.7808L277.835 18.3964L278.678 23.6133L281.791 23.0213L281.792 21.4939L282.845 21.3684L283.537 25.6281L282.484 25.7536L281.986 24.1939L278.899 24.6909L279.76 30.2183L284.933 29.1598L285.5 26.6635L286.666 26.874L286.706 30.1443L276.488 31.7862L276.312 30.924L277.846 30.5203L275.819 19.0784Z" fill="black"/>
<path d="M291.229 16.6887L288.047 17.1602L287.909 21.0957L286.641 21.2653L286.343 16.2962L297.917 14.9158L298.741 19.8221L297.594 19.9221L296.49 16.0612L293.264 16.3172L294.714 28.0118L297.388 27.9136L297.444 28.8453L290.389 29.7051L290.333 28.7734L292.704 28.2883L291.229 16.6887Z" fill="black"/>
<path d="M306.509 22.0051L305.577 22.061C305.31 22.2952 304.993 22.7194 304.745 23.2642C304.472 23.904 304.173 24.6388 303.918 25.5891C303.569 26.514 303.391 27.1792 303.168 27.6289C302.946 28.0786 302.774 28.3382 302.559 28.3824L300.049 28.6265L299.993 27.6948L300.665 27.4675C300.881 27.4234 301.027 27.2588 301.223 26.9041C301.42 26.5494 301.668 26.0047 301.967 25.2699C302.291 24.44 302.685 23.7307 302.933 23.186C303.276 22.6667 303.593 22.2425 303.954 22.0337C303.074 21.8996 302.364 21.5058 301.826 20.8524C301.289 20.199 300.992 19.4064 300.936 18.4747C300.817 17.0169 301.218 15.902 301.992 15.2945C302.886 14.6175 304.11 14.2323 305.757 14.1646C306.068 14.1459 306.594 14.0832 307.19 14.1409C307.811 14.1037 308.216 14.1105 308.527 14.0918L311.227 13.8986L311.283 14.8303L309.774 15.139L310.68 26.5859L312.397 26.6386L312.453 27.5703L306.932 28.0263L306.876 27.0947L308.696 26.7673L308.302 21.7728L306.509 22.0051ZM307.271 14.9776C306.675 14.9199 306.244 15.0081 305.744 14.9758C304.812 15.0317 304.02 15.3286 303.607 15.7274C303.074 16.1957 302.87 16.956 302.996 18.0082C303.026 19.0349 303.444 19.7579 303.912 20.2908C304.501 20.7542 305.261 20.9579 306.193 20.902C307.22 20.8715 307.866 20.7392 308.177 20.7206L307.772 15.0099L307.271 14.9776Z" fill="black"/>
<path d="M317.995 14.4897L314.769 14.7457L314.226 18.6744L312.983 18.7489L313.116 13.6917L324.746 13.2429L325.139 18.2374L324.018 18.2424L323.224 14.3629L319.954 14.4033L320.351 26.2234L322.975 26.3153L323.031 27.247L315.939 27.4857L315.883 26.554L318.298 26.2844L317.995 14.4897Z" fill="black"/>
<path d="M333.831 26.4742C332.888 25.814 332.185 25.0146 331.654 23.9556C331.123 22.8966 330.953 21.6288 330.93 20.1965C331.001 18.7896 331.332 17.5542 331.923 16.4902C332.513 15.4262 333.338 14.6286 334.397 14.0975C335.456 13.5664 336.559 13.2509 337.871 13.2968C338.777 13.3359 339.969 13.4514 341.299 13.8079L341.869 13.9607L341.574 17.3447L340.357 17.3242L339.967 14.9788C339.802 14.8328 339.543 14.6614 339.068 14.5341C338.592 14.4068 338.092 14.3745 337.496 14.3167C336.685 14.3031 336.013 14.5304 335.385 14.9733C334.757 15.4162 334.268 16.1001 333.849 16.9044C333.499 17.8293 333.245 18.7797 333.199 20.0915C333.178 21.3083 333.304 22.3605 333.575 23.248C333.847 24.1356 334.333 24.9791 334.992 25.563C335.65 26.1468 336.385 26.4456 337.291 26.4847C338.008 26.4729 338.413 26.4797 338.844 26.3915C339.18 26.2778 339.516 26.1641 339.783 25.93L340.577 24.1057L341.743 24.3162L341.245 26.933C340.935 26.9517 340.599 27.0654 340.073 27.1281C339.642 27.2163 339.185 27.3996 338.78 27.3927C338.349 27.481 337.848 27.4487 337.227 27.486C335.915 27.44 334.775 27.1345 333.831 26.4742Z" fill="black"/>
<path d="M349.437 13.8492L349.397 14.7555L347.534 14.8673L346.851 24.2588L348.558 22.0681L354.39 15.8895L354.422 15.3889L352.781 15.051L352.82 14.1448L357.922 14.4931L357.883 15.3994L356.425 15.518L355.657 27.1276L357.203 27.44L357.164 28.3462L351.967 27.9725L352.006 27.0662L353.654 26.9985L354.268 17.4865L352.706 19.5126L346.754 25.7607L346.671 26.4514L348.432 26.7197L348.393 27.6259L343.102 27.2267L343.141 26.3204L344.694 26.2272L345.462 14.6177L344.011 14.3307L344.05 13.4245L349.437 13.8492Z" fill="black"/>
<path d="M369.715 15.7177L369.322 20.6036L368.036 20.4626L367.933 16.6662L363.814 16.0719L362.494 27.8393L365.707 28.3945L365.573 29.2752L358.26 28.4363L358.394 27.5555L360.422 27.5896L361.665 16.1074L359.765 15.5981L359.899 14.7173L369.715 15.7177Z" fill="black"/>
<path d="M372.863 17.2743L371.463 16.7973L371.597 15.9165L376.596 16.645L376.462 17.5258L374.84 17.4985L374.111 22.498L380.562 23.5134L381.29 18.5139L379.795 18.0114L379.929 17.1307L384.929 17.8591L384.795 18.7399L383.267 18.7381L381.523 30.188L382.949 30.57L382.815 31.4508L377.815 30.7223L377.949 29.8415L379.477 29.8434L380.307 24.4637L373.857 23.4483L373.026 28.828L374.642 29.2608L374.508 30.1416L369.413 29.3877L369.547 28.5069L371.075 28.5087L372.863 17.2743Z" fill="black"/>
<path d="M391.683 19.2615L393.704 19.7012L395.576 33.2406L396.691 33.6412L396.557 34.5219L391.729 33.5338L391.863 32.6531L393.46 32.7754L393.128 29.8343L387.825 28.7189L386.421 31.2966L387.916 31.7991L387.782 32.6799L383.429 31.8191L383.563 30.9383L384.78 30.9588L391.683 19.2615ZM392.275 22.374L392.112 20.7006L391.394 22.2398L388.39 27.7499L393.028 28.6871L392.275 22.374Z" fill="black"/>
<path d="M402.374 30.6821C401.751 32.2468 401.014 33.4754 400.31 34.2034C399.897 34.6021 399.536 34.8108 399.2 34.9245C398.864 35.0382 398.458 35.0314 397.983 34.904C397.413 34.7513 396.937 34.6239 396.678 34.4525L396.87 32.9761C397.155 33.0525 397.63 33.1798 398.2 33.3326C398.39 33.3835 398.606 33.3394 398.821 33.2953C399.037 33.2512 399.183 33.0866 399.449 32.8524C400.687 31.6561 401.951 28.8374 403.053 24.3453L403.435 22.9198L401.439 22.3851L401.694 21.4347L412.198 24.0457L411.944 24.9961L410.157 24.8228L407.342 36.0877L409.097 36.7616L408.868 37.6169L403.235 36.2095L403.464 35.3542L405.416 35.6735L408.231 24.4086L404.499 23.5105L404.066 25.1261C403.626 27.1472 402.996 29.1175 402.374 30.6821Z" fill="black"/>
<path d="M418.445 31.5252C419.845 32.0022 420.883 32.6879 421.465 33.5569C422.047 34.4258 422.147 35.5731 421.721 36.783C421.244 38.1831 420.489 39.1011 419.456 39.5372C418.301 40.0428 417.085 40.0223 415.659 39.6404C415.469 39.5894 415.279 39.5385 415.089 39.4876C414.899 39.4367 414.709 39.3857 414.449 39.2143C413.809 38.941 413.144 38.7628 412.599 38.515L410.154 37.7578L410.383 36.9025L411.929 37.2149L415.314 26.1028L413.965 25.4358L414.194 24.5804L419.275 26.1456L419.046 27.0009L417.189 26.7071L415.879 30.8377L418.445 31.5252ZM414.609 38.2385C414.799 38.2894 415.154 38.4863 415.534 38.5882C416.579 38.8683 417.39 38.8819 418.113 38.4645C418.836 38.0471 419.325 37.3632 419.605 36.3178C419.885 35.2725 419.873 34.5563 419.456 33.8333C419.108 33.2308 418.424 32.742 417.404 32.3669L415.599 31.8831L413.779 37.9143C414.159 38.0161 414.419 38.1876 414.609 38.2385ZM431.243 29.7597L431.013 30.615L429.252 30.3467L425.867 41.4588L427.501 42.2023L427.272 43.0576L422.001 41.4415L422.23 40.5862L423.966 40.9495L427.351 29.8374L425.717 29.0939L425.946 28.2386L431.243 29.7597Z" fill="black"/>
<path d="M438.932 33.7553L437.608 32.9932L437.932 32.1634L442.652 33.9372L442.327 34.7671L440.781 34.4547L439.007 39.1741L445.197 41.5454L446.97 36.826L445.647 36.0639L445.971 35.2341L450.69 37.0079L450.366 37.8377L448.915 37.5508L444.77 48.4592L446.119 49.1263L445.795 49.9561L441.075 48.1823L441.4 47.3524L442.92 47.7599L444.891 42.6858L438.702 40.3145L436.731 45.3885L438.15 46.1761L437.826 47.0059L433.037 45.1116L433.361 44.2818L434.881 44.6892L438.932 33.7553Z" fill="black"/>
<path d="M456.923 39.5946L458.843 40.4144L457.825 54.0961L458.768 54.7564L458.444 55.5862L453.896 53.5527L454.22 52.7229L455.716 53.2254L456.099 50.2725L451.076 48.1117L449.179 50.2515L450.597 51.0391L450.273 51.8689L446.175 50.0578L446.499 49.228L447.64 49.5335L456.923 39.5946ZM456.869 42.8394L457.112 41.1729L456.039 42.5152L451.927 47.2191L456.31 49.1066L456.869 42.8394Z" fill="black"/>
<path d="M470.635 47.343L468.913 46.1685L469.332 45.3641L473.708 47.6572L472.202 56.3189L471.661 58.7202L473.266 56.9096L479.434 50.6174L483.811 52.9105L483.391 53.7149L481.447 52.9901L477.396 63.924L478.764 64.9016L478.345 65.706L473.614 63.2159L474.033 62.4116L475.598 63.0345L478.712 55.2113L480.035 51.7969L478.068 53.8163L470.834 61.0452L469.77 60.4545L471.264 51.0766L471.921 47.484L469.985 50.5301L465.426 57.6607L466.984 58.6893L466.564 59.4937L462.283 57.226L462.702 56.4216L464.172 57.0191L470.635 47.343Z" fill="black"/>
<path d="M490.005 56.4037L491.752 57.4832L489.163 70.9475L490.107 71.6077L489.687 72.4121L485.457 69.9544L485.876 69.15L487.346 69.7475L487.989 66.9661L483.334 64.191L481.177 66.1594L482.45 67.1115L482.031 67.9159L478.25 65.6805L478.669 64.8762L479.784 65.2768L490.005 56.4037ZM489.57 59.5466L490.003 57.931L488.765 59.1274L484.064 63.3679L488.2 65.8002L489.57 59.5466Z" fill="black"/>
<path d="M498.274 62.7953L497.217 61.7991L497.731 61.0202L499.808 62.3916C500.163 62.5885 500.587 62.9059 500.942 63.1027C501.556 63.4711 502.101 63.7189 502.62 64.0617C504.083 65.0648 505.045 66.0356 505.291 67.0182C505.537 68.0009 505.352 69.0717 504.666 70.1103C504.126 70.9842 503.473 71.5221 502.655 71.9141C501.837 72.306 501 72.3874 500.119 72.2533C499.239 72.1191 498.314 71.7694 497.44 71.2297C497.085 71.0328 496.825 70.8614 496.496 70.5695C496.142 70.3726 495.977 70.2266 495.907 70.1061L493.653 73.5764L495.68 75.1379L495.165 75.9168L490.042 72.6088L490.556 71.8299L492.001 72.5224L498.274 62.7953ZM497.954 70.4508C498.828 70.9905 499.588 71.1942 500.45 71.0178C501.313 70.8414 502.086 70.2339 502.823 69.0053C503.363 68.1314 503.592 67.2761 503.365 66.604C503.137 65.9319 502.599 65.2785 501.656 64.6183C501.301 64.4214 500.947 64.2245 500.497 64.0021C500.237 63.8307 500.047 63.7798 500.047 63.7798L496.422 69.3272C496.751 69.6191 497.175 69.9365 497.954 70.4508Z" fill="black"/>
<path d="M502.683 80.1721C502.247 79.1385 502.147 77.9913 502.332 76.9205C502.517 75.8496 503.064 74.5701 503.895 73.3669C504.702 72.2588 505.647 71.3917 506.706 70.8606C507.765 70.3295 508.938 70.1344 510.129 70.2499C511.32 70.3654 512.435 70.7661 513.448 71.5468C514.227 72.0611 515.12 72.9114 515.987 73.8567L516.481 74.2946L514.361 76.8841L513.322 76.1984L514.314 74.0195C514.27 73.804 514.035 73.5375 513.827 73.176C513.618 72.8145 513.099 72.4717 512.579 72.1288C511.895 71.64 511.23 71.4617 510.419 71.4481C509.608 71.4345 508.815 71.7314 508.067 72.2438C507.318 72.7563 506.494 73.5538 505.833 74.4973C505.173 75.4408 504.703 76.4353 504.353 77.3602C504.099 78.3105 503.964 79.1913 504.236 80.0788C504.507 80.9664 504.95 81.5944 505.729 82.1087C506.248 82.4515 506.673 82.7689 507.053 82.8708C507.433 82.9726 507.718 83.049 508.029 83.0304L509.741 81.9614L510.634 82.8117L508.692 84.736C508.432 84.5646 508.052 84.4627 507.603 84.2404C507.127 84.113 506.773 83.9161 506.297 83.7888C505.943 83.5919 505.493 83.3696 504.974 83.0267C503.986 82.1509 503.119 81.2056 502.683 80.1721Z" fill="black"/>
<path d="M529.943 84.1151L529.333 84.8685L527.776 83.8399L521.854 91.1148L524.517 90.3004L532.802 88.6499L533.119 88.2256L532.018 87.0138L532.627 86.2604L536.629 89.5734L536.019 90.3268L534.696 89.5647L527.289 98.5806L528.416 99.6974L527.832 100.356L523.83 97.0428L524.414 96.3844L525.808 97.267L531.85 89.9226L529.402 90.6928L520.902 92.3875L520.464 92.8813L521.66 94.1186L521.076 94.777L516.98 91.4385L517.564 90.7801L518.862 91.6372L526.269 82.6213L525.237 81.53L525.846 80.7766L529.943 84.1151Z" fill="black"/>
<path d="M539.42 92.4602C539.965 92.708 540.294 92.9999 540.649 93.1968C541.003 93.3937 541.333 93.6856 541.592 93.857C542.744 94.8788 543.491 95.8937 543.737 96.8763C543.983 97.8589 543.754 98.7142 543.05 99.4422C542.345 100.17 541.622 100.588 540.716 100.549C539.879 100.63 539.024 100.401 538.245 99.8864C539.043 100.711 539.53 101.555 539.611 102.391C539.692 103.228 539.368 104.058 538.784 104.716C537.909 105.704 536.85 106.235 535.753 106.145C534.632 106.15 533.472 105.534 532.061 104.341C531.472 103.877 531.098 103.37 530.725 102.862C530.352 102.355 530.143 101.994 529.909 101.727C529.77 101.486 529.631 101.245 529.561 101.125L531.985 98.922L532.643 99.5058L531.462 101.634C531.689 102.306 532.227 102.959 532.955 103.664C533.613 104.248 534.158 104.495 534.9 104.388C535.546 104.256 536.244 103.934 536.853 103.18C537.412 102.617 537.59 101.952 537.673 101.261C537.756 100.57 537.244 99.8219 536.421 99.0921L535.433 98.2163L536.138 97.4883L536.961 98.2181C537.385 98.5355 537.809 98.8529 538.284 98.9802C538.759 99.1075 539.26 99.1398 539.812 98.982C540.363 98.8243 540.75 98.5205 541.188 98.0267C541.772 97.3683 542.02 96.8235 541.887 96.177C541.85 95.5558 541.477 95.0484 540.818 94.4645C540.42 94.0521 540.065 93.8552 539.615 93.6329C539.261 93.436 538.95 93.4546 538.734 93.4987L537.333 94.5491L536.414 93.7938L538.242 91.5335C538.546 91.9204 538.901 92.1173 539.42 92.4602Z" fill="black"/>
<path d="M550.56 104.103L549.675 102.847L550.354 102.214L552.113 104.01C552.442 104.302 552.841 104.714 553.335 105.152C553.829 105.59 554.158 105.882 554.323 106.028C555.519 107.265 556.266 108.28 556.322 109.212C556.498 110.074 556.174 110.904 555.469 111.632C554.79 112.265 554.093 112.587 553.351 112.694C552.61 112.801 551.754 112.571 550.976 112.057C551.868 112.907 552.355 113.751 552.411 114.683C552.467 115.614 552.168 116.349 551.464 117.077C550.614 117.97 549.485 118.38 548.389 118.29C547.197 118.175 545.874 117.413 544.418 116.004C544.088 115.712 543.785 115.325 543.551 115.059C542.918 114.38 542.519 113.967 542.354 113.821L540.595 112.026L541.273 111.393L542.546 112.345L550.56 104.103ZM545.027 115.251C545.92 116.101 546.699 116.615 547.51 116.629C548.321 116.642 549.018 116.32 549.697 115.687C550.376 115.054 550.675 114.319 550.638 113.698C550.6 113.077 550.183 112.354 549.385 111.529C548.493 110.679 547.929 110.121 547.695 109.854L543.787 113.798C543.831 114.013 544.324 114.451 545.027 115.251ZM549.248 109.761L549.976 110.465C550.634 111.049 551.249 111.417 551.87 111.38C552.491 111.343 553.189 111.02 553.772 110.362C554.356 109.704 554.699 109.184 554.662 108.563C554.625 107.942 554.207 107.219 553.479 106.515C553.15 106.223 552.821 105.931 552.396 105.614L552.067 105.322L548.425 109.031C548.615 109.082 548.849 109.348 549.248 109.761Z" fill="black"/>
<path d="M562.862 114.835L564.292 116.338L557.908 128.378L558.56 129.368L557.881 130.001L554.577 126.365L555.256 125.732L556.408 126.754L557.907 124.202L554.204 120.154L551.535 121.374L552.516 122.655L551.837 123.288L548.837 120.04L549.515 119.407L550.433 120.162L562.862 114.835ZM561.381 117.697L562.289 116.209L560.748 117.018L555.048 119.667L558.282 123.182L561.381 117.697Z" fill="black"/>
<path d="M560.306 131.975C560.111 130.802 560.296 129.731 560.792 128.642C561.287 127.552 562.068 126.539 563.229 125.628C564.295 124.691 565.449 124.186 566.647 123.896C567.845 123.606 569.037 123.721 570.151 124.122C571.266 124.522 572.21 125.183 573.052 126.223C573.659 126.997 574.311 127.986 574.911 129.166L575.164 129.743L572.481 131.774L571.709 130.854L573.245 128.923C573.201 128.707 573.182 128.397 572.973 128.035C572.765 127.674 572.486 127.192 572.088 126.779C571.55 126.126 570.935 125.758 570.175 125.554C569.415 125.35 568.578 125.432 567.691 125.703C566.803 125.975 565.839 126.531 564.919 127.303C563.999 128.075 563.269 128.898 562.755 129.677C562.215 130.551 561.986 131.407 561.973 132.218C561.959 133.029 562.256 133.821 562.863 134.595C563.332 135.128 563.661 135.42 564.016 135.617C564.37 135.814 564.63 135.985 564.94 135.967L566.836 135.354L567.488 136.344L565.173 137.761C565.008 137.615 564.679 137.323 564.255 137.005C563.805 136.783 563.476 136.491 563.147 136.199C562.817 135.907 562.393 135.59 562.02 135.082C561.032 134.207 560.501 133.148 560.306 131.975Z" fill="black"/>
<path d="M579.329 138.905C580.477 138.805 581.453 138.965 582.377 139.315C583.302 139.664 584.125 140.394 584.733 141.168C585.479 142.183 585.846 143.096 585.971 144.148C586.002 145.175 585.842 146.151 585.277 147.12C584.712 148.089 583.956 149.007 582.821 149.823C581.66 150.734 580.386 151.309 579.188 151.6C577.989 151.89 576.893 151.8 575.778 151.399C574.663 150.998 573.91 150.389 573.233 149.495C572.486 148.48 572.05 147.446 571.925 146.394C571.799 145.342 572.054 144.391 572.524 143.397C573.089 142.428 573.844 141.51 574.885 140.668L573.088 138.252L568.736 141.567L569.571 143.013L568.823 143.526L565.741 139.441L566.489 138.928L567.616 140.045L576.827 133.04L576.062 131.715L576.835 131.107L579.847 135.072L579.074 135.679L577.947 134.563L573.982 137.575L575.779 139.991C577.149 139.442 578.252 139.126 579.329 138.905ZM580.95 140.46C579.708 140.535 578.218 141.154 576.549 142.439C575.122 143.584 574.126 144.641 573.7 145.851C573.274 147.061 573.399 148.113 574.146 149.128C574.918 150.048 575.817 150.493 577.085 150.323C578.327 150.249 579.748 149.509 581.391 148.319C582.818 147.174 583.814 146.117 584.24 144.907C584.666 143.697 584.541 142.645 583.864 141.75C583.187 140.856 582.192 140.386 580.95 140.46Z" fill="black"/>
<path d="M587.279 158.657C587.075 159.417 586.605 160.412 586.084 161.596C585.664 162.401 585.486 163.066 585.289 163.42C585.187 163.801 585.085 164.181 585.155 164.301L585.382 164.973L584.634 165.486L583.305 163.602C583.166 163.361 583.173 162.955 583.421 162.411C583.669 161.866 583.993 161.036 584.463 160.041C585.079 158.882 585.429 157.958 585.702 157.318C585.975 156.678 585.913 156.152 585.799 155.816L585.147 154.826L580.777 157.832L581.491 159.347L580.743 159.86L577.902 155.635L578.651 155.123L579.657 156.309L589.241 149.812L588.596 148.417L589.345 147.904L592.116 152.008L591.367 152.521L590.361 151.334L585.896 154.314L586.756 155.665L593.341 155.8L592.601 154.379L593.349 153.867L595.886 157.704L595.138 158.216L594.106 157.125L587.357 156.844C587.54 157.301 587.482 157.897 587.279 158.657Z" fill="black"/>
<path d="M586.906 168.03C586.971 167.028 587.251 165.983 588.006 165.065C588.666 164.121 589.612 163.254 590.817 162.559C592.047 161.768 593.271 161.383 594.418 161.283C595.66 161.208 596.731 161.393 597.726 161.863C598.72 162.334 599.543 163.063 600.169 164.148C601.143 165.835 601.452 167.344 600.924 168.934C600.421 170.429 599.254 171.746 597.421 172.884C596.19 173.675 594.967 174.06 593.699 174.23C592.457 174.304 591.386 174.119 590.296 173.623C589.302 173.153 588.504 172.328 587.853 171.339C587.157 170.134 586.937 169.056 586.906 168.03ZM596.444 162.844C595.227 162.824 593.668 163.323 591.955 164.392C590.363 165.391 589.272 166.423 588.751 167.607C588.135 168.766 588.26 169.818 588.886 170.903C589.538 171.892 590.507 172.458 591.724 172.478C593.036 172.524 594.5 172 596.213 170.931C597.805 169.931 598.896 168.9 599.417 167.715C599.913 166.626 599.908 165.504 599.281 164.419C598.63 163.43 597.756 162.89 596.444 162.844Z" fill="black"/>
<path d="M603.936 172.898L603.411 171.434L604.255 170.947L605.507 173.116C605.716 173.477 605.994 173.959 606.368 174.467C606.741 174.974 606.95 175.336 607.089 175.577C607.898 177.118 608.309 178.246 608.149 179.222C607.989 180.198 607.526 180.787 606.657 181.369C605.934 181.786 605.072 181.962 604.286 181.854C603.501 181.745 602.791 181.351 602.184 180.577C602.81 181.662 602.986 182.524 602.827 183.5C602.692 184.381 602.109 185.039 601.265 185.526C600.181 186.152 599.033 186.252 597.919 185.852C596.804 185.451 595.772 184.36 594.728 182.552C594.52 182.191 594.336 181.734 594.128 181.373C593.641 180.529 593.388 179.952 593.318 179.832L592.066 177.663L592.884 177.271L593.77 178.527L603.936 172.898ZM595.477 182.04C596.103 183.124 596.736 183.803 597.496 184.007C598.256 184.21 598.998 184.104 599.841 183.617C600.685 183.13 601.148 182.541 601.301 181.971C601.454 181.4 601.277 180.538 600.721 179.574C600.095 178.49 599.677 177.767 599.538 177.526L594.649 180.188C594.737 180.619 594.99 181.196 595.477 182.04ZM601.059 177.933L601.52 178.872C601.938 179.595 602.527 180.058 603.097 180.211C603.762 180.389 604.409 180.257 605.252 179.77C605.975 179.352 606.413 178.859 606.566 178.288C606.719 177.718 606.517 176.951 605.96 175.987C605.751 175.626 605.448 175.239 605.264 174.782L605.056 174.421L600.502 176.969C600.641 177.21 600.781 177.451 601.059 177.933Z" fill="black"/>
<path d="M618.495 198.393L617.677 198.785L616.816 197.434L606.397 202.485L606.966 204.165L606.148 204.557L603.866 199.77L604.684 199.378L605.544 200.729L616.058 195.703L613.428 190.313L602.889 195.433L603.457 197.114L602.639 197.506L600.331 192.813L601.149 192.421L601.94 193.651L612.359 188.6L611.86 187.041L612.678 186.649L618.495 198.393Z" fill="black"/>
<path d="M608.191 207.957C608.376 206.886 608.916 206.012 609.645 205.189C610.47 204.391 611.485 203.645 612.76 203.07C614.034 202.494 615.327 202.23 616.519 202.345C617.71 202.461 618.755 202.741 619.699 203.401C620.643 204.061 621.32 204.956 621.756 205.989C622.489 207.816 622.582 209.368 621.794 210.787C621.102 212.231 619.674 213.377 617.728 214.179C616.358 214.729 615.065 214.993 613.874 214.878C612.682 214.762 611.542 214.457 610.598 213.797C609.655 213.136 608.978 212.242 608.447 211.183C608.131 210.08 607.936 208.907 608.191 207.957ZM618.348 204.261C617.087 204.025 615.578 204.334 613.632 205.137C611.901 205.895 610.645 206.781 609.959 207.82C609.273 208.858 609.088 209.929 609.594 211.083C610.1 212.237 610.948 212.872 612.209 213.108C613.47 213.344 615.074 213.061 616.925 212.233C618.656 211.474 619.912 210.588 620.598 209.55C621.284 208.511 621.374 207.415 620.963 206.286C620.457 205.132 619.609 204.497 618.348 204.261Z" fill="black"/>
<path d="M618.1 220.391C616.376 220.743 615.013 220.888 614.038 220.728C613.563 220.601 613.087 220.473 612.853 220.207C612.524 219.915 612.29 219.648 612.106 219.192C611.854 218.615 611.766 218.184 611.747 217.873L613.142 217.228C613.161 217.539 613.344 217.996 613.597 218.573C613.641 218.788 613.805 218.934 613.97 219.08C614.135 219.226 614.325 219.277 614.61 219.353C616.346 219.717 619.363 219.099 623.567 217.475L624.937 216.926L624.375 214.84L625.288 214.473L629.104 224.561L628.191 224.928L627.381 223.387L616.501 227.499L616.949 229.249L616.062 229.521L614.053 224.093L614.94 223.822L615.794 225.578L626.674 221.466L625.373 217.959L623.788 218.553C621.695 219.52 619.825 220.038 618.1 220.391Z" fill="black"/>
<path d="M629.182 228.452L628.873 226.944L629.761 226.672L632.735 235.719L630.091 236.844L629.75 235.836L631.272 234.716L629.915 230.278L624.9 231.888L625.948 234.818L627.527 234.629L627.868 235.638L623.74 236.976L623.399 235.968L624.82 235.228L623.892 232.229L618.636 233.979L620.461 238.95L623.059 239.136L623.064 240.258L619.787 240.704L616.516 230.864L617.404 230.593L618.049 231.988L629.182 228.452Z" fill="black"/>
<path d="M633.968 243.282L632.945 240.258L628.951 240.716L628.661 239.517L633.524 238.478L636.723 249.724L631.924 251.29L631.608 250.187L635.216 248.506L634.434 245.342L623.093 248.516L623.622 251.103L622.734 251.374L620.797 244.54L621.684 244.269L622.506 246.526L633.968 243.282Z" fill="black"/>
<path d="M631.027 259.198L630.851 258.336C630.616 258.07 630.141 257.942 629.476 257.764C628.811 257.586 628.025 257.477 627.049 257.318C626.074 257.158 625.408 256.98 624.933 256.852C624.458 256.725 624.198 256.554 624.154 256.338L623.599 253.847L624.462 253.67L624.784 254.368C624.854 254.488 625.113 254.66 625.468 254.857C625.848 254.959 626.418 255.111 627.153 255.41C628.008 255.639 628.769 255.843 629.434 256.021C629.979 256.269 630.428 256.491 630.757 256.783C630.797 255.877 631.095 255.142 631.559 254.553C632.143 253.895 632.866 253.478 633.728 253.301C635.141 252.967 636.307 253.178 637.035 253.882C637.763 254.586 638.364 255.766 638.742 257.395C638.856 257.731 638.919 258.257 638.981 258.783C639.019 259.404 639.107 259.835 639.22 260.171L639.845 262.783L638.957 263.055L638.338 261.565L627.028 264.238L627.286 265.937L626.45 266.018L625.131 260.674L625.993 260.498L626.562 262.178L631.354 261.018L631.027 259.198ZM638.024 258.934C637.961 258.408 637.899 257.882 637.81 257.451C637.564 256.468 637.217 255.866 636.723 255.428C636.229 254.99 635.418 254.976 634.435 255.222C633.453 255.468 632.73 255.886 632.361 256.5C631.993 257.114 631.884 257.9 632.13 258.883C632.376 259.865 632.509 260.512 632.648 260.753L638.207 259.391L638.024 258.934Z" fill="black"/>
<path d="M640.211 269.4L639.524 266.262L635.512 266.41L635.317 265.237L640.267 264.628L642.51 276.026L637.622 277.161L637.427 275.988L641.149 274.643L640.677 271.461L629.09 273.652L629.403 276.283L628.541 276.459L627.155 269.467L628.017 269.291L628.718 271.617L640.211 269.4Z" fill="black"/>
<path d="M630.848 286.855C631.318 285.861 632.074 284.943 633.038 284.386C634.027 283.735 635.251 283.35 636.639 283.11C638.002 282.966 639.314 283.012 640.403 283.508C641.518 283.909 642.436 284.664 643.208 285.584C643.98 286.504 644.391 287.632 644.56 288.9C644.711 289.857 644.716 290.979 644.55 292.36L644.492 292.956L641.171 293.186L641.001 291.919L643.259 291.097C643.405 290.933 643.506 290.553 643.513 290.147C643.52 289.742 643.578 289.146 643.42 288.594C643.313 287.853 642.991 287.155 642.427 286.597C641.864 286.038 641.155 285.645 640.204 285.39C639.254 285.135 638.227 285.166 636.985 285.24C635.812 285.435 634.83 285.681 633.891 286.143C632.953 286.604 632.299 287.142 631.81 287.826C631.322 288.51 631.187 289.391 631.269 290.228C631.401 290.874 631.464 291.4 631.673 291.762C631.786 292.098 632.021 292.364 632.255 292.631L634.155 293.14L634.135 294.357L631.416 294.239C631.372 294.024 631.284 293.593 631.006 293.111C630.822 292.654 630.614 292.293 630.525 291.862C630.437 291.431 630.254 290.974 630.217 290.353C630.237 289.136 630.353 287.945 630.848 286.855Z" fill="black"/>
<path d="M645.751 300.423L644.819 300.479L644.397 298.634L635.003 299.479L637.391 300.832L644.471 305.581L644.997 305.518L645.05 303.8L645.981 303.744L646.444 308.859L645.513 308.915L645.178 307.502L633.586 308.572L633.558 310.194L632.627 310.25L632.189 305.04L633.121 304.984L633.499 306.613L642.988 305.794L640.669 304.562L633.52 299.692L632.899 299.73L632.846 301.447L631.915 301.503L631.477 296.293L632.409 296.237L632.718 297.746L644.31 296.676L644.407 295.174L645.339 295.118L645.751 300.423Z" fill="black"/>
<path d="M647.032 320.73L642.158 321.054L642.083 319.812L645.843 319.087L645.816 315.006L634.065 315.524L634.011 318.769L633.079 318.825L632.701 311.492L633.633 311.436L633.909 313.445L645.47 312.876L645.599 310.874L646.531 310.818L647.032 320.73Z" fill="black"/>
<path d="M645.951 324.006L646.143 322.529L647.049 322.568L647.011 327.651L646.105 327.612L645.917 326.034L640.929 326.021L640.889 332.632L645.877 332.644L646.069 331.167L646.975 331.206L646.963 336.194L646.057 336.155L645.843 334.672L634.22 334.715L634.028 336.191L633.121 336.152L633.134 331.165L634.04 331.204L634.228 332.782L639.622 332.801L639.661 326.191L634.268 326.172L634.05 327.743L633.144 327.704L633.087 322.596L633.993 322.635L634.207 324.118L645.951 324.006Z" fill="black"/>
<path d="M646.993 342.925L646.959 344.953L633.886 348.885L633.675 350.051L632.769 350.012L632.971 345.075L633.878 345.115L633.971 346.667L636.824 345.904L637.058 340.466L634.379 339.443L634.161 341.014L633.255 340.975L633.425 336.539L634.331 336.578L634.432 337.725L646.993 342.925ZM643.943 344.043L645.572 343.665L643.887 343.111L637.958 340.911L637.711 345.632L643.943 344.043Z" fill="black"/>
<path d="M637.357 355.316C635.647 354.857 634.437 354.431 633.588 353.797C633.164 353.479 632.835 353.187 632.721 352.851C632.513 352.49 632.519 352.084 632.526 351.679C632.584 351.083 632.591 350.677 632.762 350.418L634.29 350.419C634.213 350.705 634.181 351.205 634.123 351.801C634.072 351.991 634.116 352.206 634.255 352.447C634.3 352.663 634.464 352.809 634.724 352.98C636.066 354.053 639.133 354.773 643.613 355.158L645.115 355.255L645.485 353.114L646.391 353.153L645.447 363.9L644.54 363.861L644.498 362.118L632.965 361.065L632.576 362.896L631.67 362.857L632.196 357.09L633.103 357.13L633.094 359.063L644.627 360.116L644.93 356.326L643.238 356.178C640.95 355.973 638.998 355.654 637.357 355.316Z" fill="black"/>
<path d="M638.999 371.238C638.807 372.714 638.286 373.899 637.391 374.576C636.592 375.278 635.514 375.499 634.228 375.358C632.847 375.191 631.808 374.506 631.157 373.516C630.505 372.527 630.335 371.259 630.527 369.783C630.578 369.593 630.629 369.403 630.585 369.187C630.541 368.972 630.687 368.807 630.763 368.522C630.942 367.857 631.025 367.166 631.178 366.596L631.554 364.048L632.435 364.183L632.408 365.805L643.978 367.479L644.481 365.984L645.362 366.118L644.557 371.403L643.676 371.269L643.564 369.405L639.255 368.76L638.999 371.238ZM631.765 368.586C631.714 368.776 631.612 369.157 631.605 369.562C631.42 370.633 631.622 371.4 632.16 372.054C632.698 372.707 633.407 373.101 634.503 373.191C635.479 373.35 636.341 373.174 636.874 372.706C637.502 372.263 637.801 371.528 637.986 370.457L638.28 368.601L631.994 367.731C631.892 368.111 631.815 368.396 631.765 368.586ZM642.704 383.639L641.823 383.504L641.876 381.787L630.401 380.138L629.942 381.849L629.062 381.715L629.797 376.31L630.678 376.444L630.625 378.161L642.1 379.81L642.559 378.099L643.44 378.234L642.704 383.639Z" fill="black"/>
<path d="M639.893 391.849L640.465 390.474L641.321 390.704L640.186 395.696L639.331 395.467L639.453 393.87L634.556 392.762L633.135 399.205L638.032 400.314L638.605 398.939L639.46 399.168L638.351 404.066L637.496 403.837L637.593 402.335L626.226 399.9L625.749 401.3L624.894 401.071L626.002 396.174L626.858 396.403L626.761 397.905L632.064 399.02L633.485 392.576L628.182 391.461L627.654 393.051L626.799 392.822L627.933 387.829L628.788 388.058L628.691 389.56L639.893 391.849Z" fill="black"/>
<path d="M636.86 410.389L636.326 412.385L622.749 413.636L622.253 414.725L621.398 414.496L622.576 409.719L623.432 409.948L623.214 411.52L626.104 411.377L627.41 406.125L624.953 404.652L624.355 406.121L623.5 405.892L624.551 401.59L625.406 401.82L625.29 403.011L636.86 410.389ZM633.704 410.765L635.447 410.723L633.933 409.91L628.594 406.646L627.467 411.233L633.704 410.765Z" fill="black"/>
<path d="M631.335 425.308L632.25 423.414L633.08 423.738L631.522 428.413L622.719 428.193L620.311 428.058L622.413 429.334L629.581 434.514L628.023 439.189L627.193 438.865L627.633 436.844L616.12 434.574L615.428 436.018L614.598 435.694L616.284 430.543L617.113 430.868L616.775 432.509L625.025 434.413L628.592 435.166L626.281 433.528L618.03 427.446L618.431 426.331L627.905 426.324L631.651 426.411L628.287 424.898L620.541 421.498L619.772 423.228L618.942 422.903L620.475 418.323L621.304 418.647L620.992 420.193L631.335 425.308Z" fill="black"/>
<path d="M625.404 445.923L624.679 447.868L611.06 447.376L610.495 448.345L609.665 448.021L611.509 443.422L612.339 443.746L611.931 445.267L614.84 445.435L616.811 440.361L614.55 438.533L613.763 439.952L612.933 439.627L614.554 435.478L615.384 435.802L615.173 436.968L625.404 445.923ZM622.159 445.868L623.851 446.016L622.483 445.038L617.634 441.091L615.936 445.525L622.159 445.868Z" fill="black"/>
<path d="M620.336 454.954L621.167 453.751L621.997 454.075L620.98 456.349C620.758 456.799 620.656 457.179 620.459 457.534C620.186 458.174 620.033 458.744 619.785 459.288C619.042 460.923 618.261 461.936 617.323 462.397C616.41 462.764 615.383 462.794 614.103 462.248C613.204 461.803 612.52 461.314 612.008 460.566C611.495 459.817 611.293 459.05 611.237 458.118C611.182 457.187 611.436 456.236 611.881 455.337C612.078 454.982 612.154 454.697 612.351 454.343C612.548 453.988 612.599 453.798 612.719 453.728L608.976 452.114L607.769 454.337L606.939 454.013L609.443 448.47L610.273 448.795L609.77 450.29L620.336 454.954ZM612.78 455.782C612.336 456.681 612.322 457.492 612.593 458.38C612.865 459.268 613.618 459.877 614.898 460.423C615.892 460.894 616.703 460.907 617.281 460.654C617.978 460.332 618.467 459.648 618.937 458.654C619.134 458.299 619.236 457.919 619.363 457.444C619.439 457.159 619.49 456.969 619.516 456.874L613.403 454.217C613.327 454.502 613.079 455.047 612.78 455.782Z" fill="black"/>
<path d="M603.869 462.052C604.833 461.495 605.936 461.18 607.057 461.175C608.274 461.195 609.51 461.526 610.764 462.168C612.018 462.809 613.031 463.59 613.682 464.579C614.429 465.594 614.745 466.697 614.845 467.845C614.945 468.992 614.734 470.158 614.118 471.317C613.673 472.216 613.013 473.16 612.207 474.268L611.864 474.787L608.932 473.187L609.427 472.097L611.803 472.734C612.019 472.69 612.285 472.455 612.577 472.126C612.869 471.797 613.091 471.347 613.434 470.828C613.828 470.119 613.911 469.428 613.735 468.566C613.628 467.824 613.21 467.101 612.603 466.327C611.97 465.648 611.122 465.014 609.962 464.398C608.873 463.902 607.853 463.527 606.877 463.367C605.902 463.208 604.97 463.263 604.152 463.655C603.359 463.952 602.801 464.516 602.356 465.415C602.083 466.055 601.861 466.505 601.854 466.91C601.752 467.29 601.77 467.601 601.884 467.937L603.22 469.415L602.559 470.359L600.343 468.746C600.42 468.461 600.521 468.081 600.649 467.606C600.776 467.131 600.783 466.725 600.91 466.25C601.012 465.87 601.26 465.325 601.508 464.78C602.124 463.621 602.879 462.703 603.869 462.052Z" fill="black"/>
<path d="M604.241 489.551L603.462 489.037L604.231 487.307L596.125 482.589L597.3 485.043L600.244 493.064L600.694 493.286L601.767 491.944L602.545 492.458L599.942 496.853L599.163 496.339L599.735 494.964L589.69 489.115L588.738 490.388L587.934 489.969L590.563 485.479L591.367 485.898L590.649 487.437L598.825 492.276L597.599 490.012L594.68 481.896L594.066 481.528L592.968 482.965L592.164 482.546L594.818 477.961L595.623 478.38L595.025 479.85L605.07 485.699L605.996 484.521L606.775 485.035L604.241 489.551Z" fill="black"/>
<path d="M597.523 500.178C597.275 500.722 597.148 501.197 596.951 501.552C596.754 501.907 596.557 502.262 596.386 502.521C595.529 503.819 594.679 504.712 593.766 505.078C592.852 505.445 591.946 505.406 591.072 504.866C590.198 504.326 589.781 503.603 589.604 502.741C589.428 501.879 589.537 501.093 589.886 500.168C589.226 501.112 588.452 501.719 587.59 501.896C586.728 502.072 585.942 501.964 585.163 501.449C584.03 500.738 583.353 499.844 583.253 498.696C583.127 497.644 583.484 496.314 584.512 494.756C584.881 494.142 585.318 493.648 585.756 493.154C586.169 492.755 586.556 492.452 586.822 492.217C587.089 491.983 587.235 491.819 587.33 491.844L589.85 493.843L589.335 494.622L587.036 493.701C586.433 494.049 585.875 494.612 585.215 495.555C584.726 496.239 584.643 496.93 584.775 497.577C584.907 498.223 585.471 498.782 586.345 499.321C586.959 499.69 587.624 499.868 588.366 499.761C589.108 499.654 589.761 499.116 590.301 498.242L591.012 497.109L591.886 497.648L591.346 498.522C591.029 498.947 590.901 499.422 590.774 499.897C590.742 500.398 590.804 500.924 590.988 501.38C591.171 501.837 591.57 502.249 592.089 502.592C592.773 503.081 593.464 503.164 594.015 503.006C594.567 502.849 595.1 502.38 595.588 501.696C595.906 501.272 596.128 500.822 596.135 500.417C596.237 500.037 596.218 499.726 596.079 499.485L594.788 498.222L595.448 497.279L597.931 498.657C597.873 499.253 597.676 499.607 597.523 500.178Z" fill="black"/>
<path d="M587.735 513.139L588.852 512.012L589.631 512.527L588.164 514.578C587.873 514.908 587.65 515.357 587.282 515.972C586.939 516.491 586.742 516.845 586.571 517.105C585.593 518.473 584.648 519.34 583.76 519.611C582.873 519.883 581.992 519.749 581.238 519.139C580.555 518.651 580.017 517.997 579.84 517.135C579.638 516.368 579.747 515.582 580.071 514.752C579.411 515.696 578.637 516.303 577.749 516.575C576.887 516.751 576.007 516.617 575.253 516.008C574.24 515.227 573.683 514.263 573.583 513.116C573.483 511.969 573.986 510.474 575.23 508.872C575.522 508.542 575.719 508.188 576.011 507.859C576.62 507.105 576.963 506.586 577.083 506.516L578.55 504.465L579.329 504.979L578.567 506.303L587.735 513.139ZM575.819 509.335C575.038 510.348 574.783 511.298 574.795 512.015C574.807 512.731 575.319 513.479 576.098 513.993C576.852 514.603 577.612 514.806 578.259 514.674C578.905 514.542 579.559 514.004 580.193 513.155C580.974 512.142 581.368 511.433 581.539 511.173L577.012 507.923C576.891 507.993 576.454 508.487 575.819 509.335ZM581.874 512.587L581.239 513.436C580.75 514.119 580.572 514.785 580.704 515.431C580.836 516.078 581.279 516.706 581.963 517.195C582.647 517.683 583.312 517.862 583.933 517.824C584.485 517.667 585.113 517.224 585.773 516.28C586.065 515.951 586.287 515.501 586.484 515.147L586.681 514.792L582.508 511.739C582.457 511.929 582.191 512.163 581.874 512.587Z" fill="black"/>
<path d="M578.96 526.881L577.716 528.483L564.761 523.993L563.936 524.791L563.183 524.181L566.255 520.319L567.008 520.928L566.151 522.226L568.831 523.25L572.22 518.963L570.613 516.598L569.496 517.724L568.743 517.115L571.498 513.677L572.251 514.286L571.66 515.35L578.96 526.881ZM575.875 525.851L577.44 526.473L576.389 525.072L572.897 519.858L569.971 523.556L575.875 525.851Z" fill="black"/>
<path d="M561.608 527.019C562.711 526.703 563.832 526.698 564.973 527.004C566.113 527.309 567.247 528.02 568.329 528.922C569.412 529.823 570.159 530.838 570.569 531.966C570.98 533.095 571.08 534.242 570.869 535.408C570.659 536.574 570.068 537.638 569.313 538.556C568.704 539.309 567.784 540.082 566.743 540.923L566.236 541.296L563.818 538.917L564.668 538.024L566.796 539.206C567.012 539.162 567.348 539.048 567.735 538.744C568.096 538.536 568.509 538.137 568.851 537.617C569.41 537.054 569.709 536.319 569.722 535.508C569.831 534.722 569.629 533.955 569.142 533.112C568.655 532.268 568.073 531.399 567.06 530.619C566.142 529.863 565.293 529.229 564.369 528.879C563.444 528.529 562.563 528.395 561.726 528.476C560.89 528.558 560.167 528.975 559.557 529.729C559.119 530.223 558.802 530.647 558.7 531.027C558.503 531.382 558.522 531.692 558.446 531.977L559.299 533.734L558.379 534.506L556.696 532.425C556.842 532.261 557.039 531.906 557.286 531.361C557.509 530.911 557.706 530.557 557.903 530.202C558.1 529.847 558.417 529.423 558.855 528.929C559.49 528.081 560.504 527.334 561.608 527.019Z" fill="black"/>
<path d="M557.692 546.952C558.008 548.055 558.038 549.082 557.784 550.032C557.529 550.983 557.084 551.882 556.285 552.584C555.435 553.477 554.471 554.034 553.488 554.28C552.506 554.526 551.409 554.436 550.389 554.06C549.369 553.685 548.331 553 547.343 552.124C546.286 551.128 545.47 549.992 545.085 548.769C544.674 547.64 544.479 546.467 544.759 545.422C544.944 544.351 545.51 543.382 546.239 542.559C547.09 541.666 548.054 541.11 549.062 540.769C550.044 540.523 551.141 540.613 552.161 540.988C553.18 541.363 554.219 542.049 555.207 542.925L557.32 540.741L553.351 536.927L552.069 537.908L551.436 537.229L554.983 533.494L555.642 534.078L554.69 535.351L563.027 543.39L564.187 542.479L564.82 543.158L561.299 546.798L560.666 546.119L561.618 544.846L557.978 541.325L555.865 543.509C556.846 544.79 557.377 545.849 557.692 546.952ZM556.518 548.675C556.228 547.476 555.368 546.125 553.912 544.717C552.62 543.454 551.297 542.692 550.036 542.456C548.775 542.22 547.672 542.535 546.821 543.428C545.971 544.321 545.716 545.271 546.006 546.469C546.297 547.667 547.157 549.018 548.708 550.452C549.999 551.715 551.228 552.452 552.463 552.783C553.699 553.114 554.707 552.773 555.557 551.88C556.407 550.988 556.688 549.942 556.518 548.675Z" fill="black"/>
<path d="M539.421 557.742C538.635 557.633 537.59 557.353 536.354 557.022C535.499 556.793 534.834 556.615 534.359 556.488C533.979 556.386 533.668 556.404 533.427 556.544L532.729 556.866L532.097 556.187L533.746 554.592C533.987 554.453 534.323 554.339 534.988 554.517C535.559 554.67 536.414 554.899 537.554 555.205C538.764 555.631 539.715 555.886 540.5 555.994C541.166 556.173 541.692 556.11 541.984 555.781L542.809 554.983L539.175 551.056L537.799 552.011L537.166 551.332L540.947 547.864L541.58 548.543L540.559 549.695L548.458 558.228L549.714 557.343L550.347 558.021L546.686 561.42L546.053 560.741L547.005 559.469L543.372 555.541L542.16 556.643L543.052 563.197L544.308 562.311L544.941 562.99L541.547 566.155L540.914 565.476L541.84 564.298L541.094 557.579C540.923 557.839 540.207 557.851 539.421 557.742Z" fill="black"/>
<path d="M530.141 558.923C531.194 558.797 532.264 558.982 533.233 559.548C534.323 560.043 535.215 560.893 536.152 561.959C537.089 563.025 537.689 564.205 537.98 565.403C538.27 566.601 538.275 567.723 537.899 568.743C537.524 569.763 536.959 570.731 536.039 571.504C534.586 572.744 533.027 573.243 531.455 573.025C529.884 572.808 528.421 571.805 526.921 570.181C525.984 569.115 525.384 567.935 525.094 566.737C524.803 565.539 524.798 564.417 525.199 563.302C525.505 562.162 526.139 561.314 527.059 560.541C528.056 559.484 529.089 559.048 530.141 558.923ZM536.703 567.505C536.534 566.238 535.794 564.817 534.458 563.339C533.218 561.886 532.015 561.054 530.805 560.628C529.595 560.202 528.517 560.423 527.597 561.195C526.677 561.967 526.302 562.987 526.472 564.255C526.641 565.522 527.381 566.943 528.691 568.516C529.932 569.969 531.135 570.801 532.345 571.227C533.58 571.558 534.658 571.337 535.578 570.565C536.498 569.793 536.873 568.773 536.703 567.505Z" fill="black"/>
<path d="M528.01 576.38L529.335 575.615L529.943 576.389L528.008 577.907C527.647 578.116 527.234 578.515 526.796 579.009C526.384 579.408 525.997 579.711 525.756 579.85C524.354 580.901 523.295 581.432 522.363 581.488C521.432 581.544 520.627 581.124 520.02 580.351C519.482 579.697 519.185 578.905 519.199 578.093C519.212 577.282 519.511 576.547 520.095 575.889C519.175 576.661 518.262 577.028 517.356 576.988C516.449 576.949 515.645 576.53 515.038 575.756C514.291 574.741 513.975 573.638 514.186 572.472C514.396 571.306 515.349 570.034 516.896 568.819C517.283 568.515 517.645 568.306 517.911 568.072C518.685 567.465 519.167 567.186 519.313 567.022L521.248 565.503L521.76 566.251L520.644 567.378L528.01 576.38ZM517.624 569.523C516.61 570.27 516.095 571.049 515.987 571.834C515.878 572.62 516.08 573.387 516.687 574.161C517.295 574.935 517.909 575.303 518.6 575.387C519.29 575.47 519.988 575.147 520.882 574.47C521.897 573.724 522.551 573.186 522.722 572.926L519.311 568.549C518.931 568.447 518.424 568.821 517.624 569.523ZM522.556 574.308L521.782 574.915C521.128 575.453 520.76 576.067 520.677 576.758C520.594 577.449 520.821 578.121 521.454 578.8C521.992 579.453 522.606 579.821 523.202 579.879C523.797 579.937 524.495 579.614 525.389 578.937C525.776 578.634 526.068 578.304 526.455 578.001L526.722 577.767L523.545 573.656C523.209 573.77 522.943 574.004 522.556 574.308Z" fill="black"/>
<g style="mix-blend-mode:overlay">
<circle cx="113.349" cy="108.395" r="2" fill="black"/>
</g>
<g style="mix-blend-mode:overlay">
<circle cx="517.848" cy="82.7654" r="2" fill="black"/>
</g>
</g>
</g>
<defs>
<clipPath id="clip0_40077_262">
<rect width="660" height="660" fill="white"/>
</clipPath>
</defs>
</svg>
